<svg width="556" height="246" viewBox="0 0 556 246" fill="none" xmlns="http://www.w3.org/2000/svg">
<rect x="1.41628" y="1.41628" width="552.349" height="67.0372" stroke="white" stroke-width="2.83256"/>
<path d="M34.7763 29.1612C35.8942 29.1612 36.8711 29.3777 37.707 29.8108C38.553 30.2338 39.2026 30.8481 39.6558 31.6538C40.1191 32.4495 40.3507 33.3811 40.3507 34.4486C40.3507 35.5162 40.1191 36.4427 39.6558 37.2283C39.2026 38.0139 38.553 38.6181 37.707 39.0411C36.8711 39.4541 35.8942 39.6605 34.7763 39.6605H31.347V29.1612H34.7763ZM34.7763 38.2556C36.005 38.2556 36.9466 37.9232 37.6013 37.2585C38.2559 36.5938 38.5832 35.6572 38.5832 34.4486C38.5832 33.23 38.2559 32.2782 37.6013 31.5934C36.9466 30.9085 36.005 30.5661 34.7763 30.5661H33.0692V38.2556H34.7763ZM49.6866 35.2946C49.6866 35.6068 49.6665 35.8888 49.6262 36.1406H43.2661C43.3165 36.8053 43.5632 37.3391 44.0064 37.7419C44.4495 38.1448 44.9934 38.3462 45.6379 38.3462C46.5645 38.3462 47.2191 37.9585 47.6018 37.183H49.46C49.2082 37.9484 48.75 38.5779 48.0853 39.0714C47.4306 39.5548 46.6149 39.7965 45.6379 39.7965C44.8423 39.7965 44.1272 39.6202 43.4927 39.2677C42.8683 38.9052 42.3748 38.4016 42.0123 37.757C41.6598 37.1024 41.4835 36.3471 41.4835 35.491C41.4835 34.6349 41.6547 33.8846 41.9972 33.2401C42.3497 32.5854 42.8381 32.0819 43.4625 31.7294C44.097 31.3769 44.8222 31.2006 45.6379 31.2006C46.4235 31.2006 47.1235 31.3718 47.7378 31.7143C48.3522 32.0567 48.8305 32.5401 49.173 33.1645C49.5154 33.7789 49.6866 34.4889 49.6866 35.2946ZM47.8889 34.7508C47.8788 34.1163 47.6522 33.6077 47.2091 33.225C46.7659 32.8422 46.217 32.6509 45.5624 32.6509C44.9682 32.6509 44.4596 32.8422 44.0366 33.225C43.6136 33.5976 43.3618 34.1062 43.2812 34.7508H47.8889ZM54.4028 39.7965C53.7482 39.7965 53.159 39.6807 52.6353 39.449C52.1217 39.2073 51.7138 38.885 51.4116 38.4822C51.1095 38.0693 50.9484 37.611 50.9282 37.1074H52.7108C52.741 37.4599 52.9072 37.757 53.2094 37.9988C53.5216 38.2304 53.9093 38.3462 54.3726 38.3462C54.856 38.3462 55.2287 38.2556 55.4905 38.0743C55.7624 37.8829 55.8984 37.6412 55.8984 37.3492C55.8984 37.0369 55.7473 36.8053 55.4452 36.6542C55.1531 36.5032 54.6848 36.337 54.0402 36.1557C53.4158 35.9845 52.9072 35.8183 52.5144 35.6572C52.1217 35.496 51.7792 35.2493 51.4872 34.9169C51.2052 34.5846 51.0642 34.1465 51.0642 33.6026C51.0642 33.1595 51.1951 32.7566 51.457 32.3941C51.7188 32.0214 52.0914 31.7294 52.5749 31.5179C53.0684 31.3064 53.6324 31.2006 54.2669 31.2006C55.2136 31.2006 55.9739 31.4423 56.548 31.9258C57.1321 32.3991 57.4444 33.0487 57.4846 33.8746H55.7624C55.7322 33.5019 55.5812 33.2048 55.3092 32.9832C55.0373 32.7617 54.6697 32.6509 54.2064 32.6509C53.7532 32.6509 53.4058 32.7365 53.164 32.9077C52.9223 33.0789 52.8015 33.3055 52.8015 33.5875C52.8015 33.8091 52.882 33.9954 53.0432 34.1465C53.2043 34.2975 53.4007 34.4184 53.6324 34.509C53.864 34.5896 54.2064 34.6954 54.6596 34.8263C55.2639 34.9874 55.7574 35.1536 56.1401 35.3248C56.5329 35.486 56.8703 35.7277 57.1523 36.05C57.4343 36.3722 57.5803 36.8003 57.5904 37.334C57.5904 37.8074 57.4595 38.2304 57.1976 38.603C56.9358 38.9757 56.5631 39.2677 56.0797 39.4792C55.6063 39.6907 55.0474 39.7965 54.4028 39.7965ZM60.3275 30.2338C60.0153 30.2338 59.7534 30.128 59.5419 29.9165C59.3304 29.705 59.2247 29.4432 59.2247 29.131C59.2247 28.8187 59.3304 28.5569 59.5419 28.3454C59.7534 28.1339 60.0153 28.0281 60.3275 28.0281C60.6296 28.0281 60.8864 28.1339 61.0979 28.3454C61.3094 28.5569 61.4152 28.8187 61.4152 29.131C61.4152 29.4432 61.3094 29.705 61.0979 29.9165C60.8864 30.128 60.6296 30.2338 60.3275 30.2338ZM61.1735 31.3366V39.6605H59.4513V31.3366H61.1735ZM66.7883 31.2006C67.4329 31.2006 68.0019 31.3315 68.4954 31.5934C68.999 31.8452 69.3917 32.1624 69.6737 32.5451V31.3366H71.411V39.7965C71.411 40.5619 71.2499 41.2417 70.9276 41.8359C70.6053 42.4402 70.137 42.9136 69.5227 43.256C68.9184 43.5984 68.1932 43.7696 67.3473 43.7696C66.2193 43.7696 65.2826 43.5027 64.5374 42.969C63.7921 42.4452 63.3691 41.7302 63.2684 40.8238H64.9755C65.1064 41.2568 65.3833 41.6043 65.8063 41.8661C66.2394 42.1381 66.753 42.274 67.3473 42.274C68.0422 42.274 68.6011 42.0625 69.0241 41.6395C69.4572 41.2165 69.6737 40.6022 69.6737 39.7965V38.4066C69.3817 38.7994 68.9838 39.1318 68.4803 39.4037C67.9868 39.6656 67.4228 39.7965 66.7883 39.7965C66.0632 39.7965 65.3985 39.6152 64.7942 39.2526C64.2 38.88 63.7266 38.3664 63.3741 37.7117C63.0317 37.047 62.8605 36.2967 62.8605 35.4608C62.8605 34.6249 63.0317 33.8846 63.3741 33.2401C63.7266 32.5955 64.2 32.097 64.7942 31.7445C65.3985 31.3819 66.0632 31.2006 66.7883 31.2006ZM69.6737 35.491C69.6737 34.9169 69.5529 34.4184 69.3112 33.9954C69.0795 33.5724 68.7723 33.2501 68.3896 33.0286C68.0069 32.807 67.594 32.6962 67.1509 32.6962C66.7077 32.6962 66.2948 32.807 65.9121 33.0286C65.5294 33.2401 65.2172 33.5573 64.9755 33.9803C64.7438 34.3932 64.628 34.8867 64.628 35.4608C64.628 36.0348 64.7438 36.5384 64.9755 36.9715C65.2172 37.4045 65.5294 37.7369 65.9121 37.9685C66.3049 38.1901 66.7178 38.3009 67.1509 38.3009C67.594 38.3009 68.0069 38.1901 68.3896 37.9685C68.7723 37.747 69.0795 37.4247 69.3112 37.0017C69.5529 36.5686 69.6737 36.0651 69.6737 35.491ZM77.8728 31.2006C78.5274 31.2006 79.1116 31.3366 79.6252 31.6085C80.1489 31.8804 80.5568 32.2833 80.8489 32.8171C81.1409 33.3508 81.287 33.9954 81.287 34.7508V39.6605H79.5799V35.0076C79.5799 34.2623 79.3936 33.6933 79.0209 33.3005C78.6483 32.8976 78.1397 32.6962 77.4951 32.6962C76.8506 32.6962 76.3369 32.8976 75.9542 33.3005C75.5816 33.6933 75.3953 34.2623 75.3953 35.0076V39.6605H73.6731V31.3366H75.3953V32.2883C75.6773 31.9459 76.0348 31.679 76.4679 31.4876C76.911 31.2963 77.3793 31.2006 77.8728 31.2006ZM86.834 35.4608C86.834 34.6249 87.0052 33.8846 87.3476 33.2401C87.7001 32.5955 88.1734 32.097 88.7676 31.7445C89.3719 31.3819 90.0366 31.2006 90.7618 31.2006C91.4164 31.2006 91.9854 31.3315 92.4689 31.5934C92.9624 31.8452 93.3551 32.1624 93.6472 32.5451V31.3366H95.3845V39.6605H93.6472V38.4218C93.3551 38.8145 92.9573 39.1418 92.4538 39.4037C91.9502 39.6656 91.3761 39.7965 90.7316 39.7965C90.0165 39.7965 89.3619 39.6152 88.7676 39.2526C88.1734 38.88 87.7001 38.3664 87.3476 37.7117C87.0052 37.047 86.834 36.2967 86.834 35.4608ZM93.6472 35.491C93.6472 34.9169 93.5263 34.4184 93.2846 33.9954C93.053 33.5724 92.7458 33.2501 92.3631 33.0286C91.9804 32.807 91.5675 32.6962 91.1243 32.6962C90.6812 32.6962 90.2683 32.807 89.8856 33.0286C89.5029 33.2401 89.1906 33.5573 88.9489 33.9803C88.7173 34.3932 88.6015 34.8867 88.6015 35.4608C88.6015 36.0348 88.7173 36.5384 88.9489 36.9715C89.1906 37.4045 89.5029 37.7369 89.8856 37.9685C90.2783 38.1901 90.6913 38.3009 91.1243 38.3009C91.5675 38.3009 91.9804 38.1901 92.3631 37.9685C92.7458 37.747 93.053 37.4247 93.2846 37.0017C93.5263 36.5686 93.6472 36.0651 93.6472 35.491ZM112.75 31.3366L110.167 39.6605H108.354L106.677 33.512L105 39.6605H103.187L100.589 31.3366H102.341L104.079 38.029L105.846 31.3366H107.644L109.336 37.9988L111.058 31.3366H112.75ZM121.666 35.2946C121.666 35.6068 121.646 35.8888 121.606 36.1406H115.246C115.296 36.8053 115.543 37.3391 115.986 37.7419C116.429 38.1448 116.973 38.3462 117.617 38.3462C118.544 38.3462 119.199 37.9585 119.581 37.183H121.439C121.188 37.9484 120.729 38.5779 120.065 39.0714C119.41 39.5548 118.594 39.7965 117.617 39.7965C116.822 39.7965 116.107 39.6202 115.472 39.2677C114.848 38.9052 114.354 38.4016 113.992 37.757C113.639 37.1024 113.463 36.3471 113.463 35.491C113.463 34.6349 113.634 33.8846 113.977 33.2401C114.329 32.5854 114.818 32.0819 115.442 31.7294C116.076 31.3769 116.802 31.2006 117.617 31.2006C118.403 31.2006 119.103 31.3718 119.717 31.7143C120.332 32.0567 120.81 32.5401 121.152 33.1645C121.495 33.7789 121.666 34.4889 121.666 35.2946ZM119.868 34.7508C119.858 34.1163 119.632 33.6077 119.188 33.225C118.745 32.8422 118.196 32.6509 117.542 32.6509C116.948 32.6509 116.439 32.8422 116.016 33.225C115.593 33.5976 115.341 34.1062 115.261 34.7508H119.868ZM125.083 32.5754C125.375 32.1725 125.773 31.8452 126.276 31.5934C126.79 31.3315 127.359 31.2006 127.984 31.2006C128.719 31.2006 129.384 31.3769 129.978 31.7294C130.572 32.0819 131.04 32.5854 131.383 33.2401C131.725 33.8846 131.896 34.6249 131.896 35.4608C131.896 36.2967 131.725 37.047 131.383 37.7117C131.04 38.3664 130.567 38.88 129.963 39.2526C129.368 39.6152 128.709 39.7965 127.984 39.7965C127.339 39.7965 126.765 39.6706 126.261 39.4188C125.768 39.167 125.375 38.8447 125.083 38.452V39.6605H123.361V28.4814H125.083V32.5754ZM130.144 35.4608C130.144 34.8867 130.023 34.3932 129.781 33.9803C129.55 33.5573 129.237 33.2401 128.845 33.0286C128.462 32.807 128.049 32.6962 127.606 32.6962C127.173 32.6962 126.76 32.807 126.367 33.0286C125.984 33.2501 125.672 33.5724 125.431 33.9954C125.199 34.4184 125.083 34.9169 125.083 35.491C125.083 36.0651 125.199 36.5686 125.431 37.0017C125.672 37.4247 125.984 37.747 126.367 37.9685C126.76 38.1901 127.173 38.3009 127.606 38.3009C128.049 38.3009 128.462 38.1901 128.845 37.9685C129.237 37.7369 129.55 37.4045 129.781 36.9715C130.023 36.5384 130.144 36.0348 130.144 35.4608ZM136.621 39.7965C135.966 39.7965 135.377 39.6807 134.853 39.449C134.34 39.2073 133.932 38.885 133.63 38.4822C133.327 38.0693 133.166 37.611 133.146 37.1074H134.929C134.959 37.4599 135.125 37.757 135.427 37.9988C135.74 38.2304 136.127 38.3462 136.591 38.3462C137.074 38.3462 137.447 38.2556 137.708 38.0743C137.98 37.8829 138.116 37.6412 138.116 37.3492C138.116 37.0369 137.965 36.8053 137.663 36.6542C137.371 36.5032 136.903 36.337 136.258 36.1557C135.634 35.9845 135.125 35.8183 134.732 35.6572C134.34 35.496 133.997 35.2493 133.705 34.9169C133.423 34.5846 133.282 34.1465 133.282 33.6026C133.282 33.1595 133.413 32.7566 133.675 32.3941C133.937 32.0214 134.309 31.7294 134.793 31.5179C135.286 31.3064 135.85 31.2006 136.485 31.2006C137.432 31.2006 138.192 31.4423 138.766 31.9258C139.35 32.3991 139.662 33.0487 139.703 33.8746H137.98C137.95 33.5019 137.799 33.2048 137.527 32.9832C137.255 32.7617 136.888 32.6509 136.424 32.6509C135.971 32.6509 135.624 32.7365 135.382 32.9077C135.14 33.0789 135.019 33.3055 135.019 33.5875C135.019 33.8091 135.1 33.9954 135.261 34.1465C135.422 34.2975 135.619 34.4184 135.85 34.509C136.082 34.5896 136.424 34.6954 136.878 34.8263C137.482 34.9874 137.975 35.1536 138.358 35.3248C138.751 35.486 139.088 35.7277 139.37 36.05C139.652 36.3722 139.798 36.8003 139.808 37.334C139.808 37.8074 139.677 38.2304 139.416 38.603C139.154 38.9757 138.781 39.2677 138.298 39.4792C137.824 39.6907 137.265 39.7965 136.621 39.7965ZM142.545 30.2338C142.233 30.2338 141.971 30.128 141.76 29.9165C141.548 29.705 141.443 29.4432 141.443 29.131C141.443 28.8187 141.548 28.5569 141.76 28.3454C141.971 28.1339 142.233 28.0281 142.545 28.0281C142.848 28.0281 143.104 28.1339 143.316 28.3454C143.527 28.5569 143.633 28.8187 143.633 29.131C143.633 29.4432 143.527 29.705 143.316 29.9165C143.104 30.128 142.848 30.2338 142.545 30.2338ZM143.391 31.3366V39.6605H141.669V31.3366H143.391ZM147.662 32.7415V37.3492C147.662 37.6614 147.732 37.888 147.873 38.029C148.024 38.1599 148.276 38.2254 148.629 38.2254H149.686V39.6605H148.326C147.551 39.6605 146.957 39.4792 146.544 39.1167C146.131 38.7541 145.924 38.1649 145.924 37.3492V32.7415H144.942V31.3366H145.924V29.2669H147.662V31.3366H149.686V32.7415H147.662ZM158.902 35.2946C158.902 35.6068 158.882 35.8888 158.842 36.1406H152.482C152.532 36.8053 152.779 37.3391 153.222 37.7419C153.665 38.1448 154.209 38.3462 154.854 38.3462C155.78 38.3462 156.435 37.9585 156.818 37.183H158.676C158.424 37.9484 157.966 38.5779 157.301 39.0714C156.646 39.5548 155.831 39.7965 154.854 39.7965C154.058 39.7965 153.343 39.6202 152.709 39.2677C152.084 38.9052 151.591 38.4016 151.228 37.757C150.876 37.1024 150.699 36.3471 150.699 35.491C150.699 34.6349 150.87 33.8846 151.213 33.2401C151.565 32.5854 152.054 32.0819 152.678 31.7294C153.313 31.3769 154.038 31.2006 154.854 31.2006C155.639 31.2006 156.339 31.3718 156.954 31.7143C157.568 32.0567 158.046 32.5401 158.389 33.1645C158.731 33.7789 158.902 34.4889 158.902 35.2946ZM157.105 34.7508C157.095 34.1163 156.868 33.6077 156.425 33.225C155.982 32.8422 155.433 32.6509 154.778 32.6509C154.184 32.6509 153.675 32.8422 153.252 33.225C152.829 33.5976 152.578 34.1062 152.497 34.7508H157.105Z" fill="white"/>
<rect x="485.312" width="69.8698" height="69.8698" fill="white"/>
<rect x="519.302" y="25.493" width="2.83256" height="19.8279" fill="black"/>
<rect x="530.633" y="33.9907" width="2.83256" height="19.8279" transform="rotate(90 530.633 33.9907)" fill="black"/>
<rect y="167.488" width="555.181" height="1.88837" fill="#D9D9D9"/>
<rect x="519.302" y="128" width="2.83256" height="19.8279" fill="white"/>
<rect x="530.633" y="136.498" width="2.83256" height="19.8279" transform="rotate(90 530.633 136.498)" fill="white"/>
<path d="M32.8577 136.169C31.8505 135.645 31.347 134.834 31.347 133.736C31.347 133.193 31.4829 132.699 31.7549 132.256C32.0369 131.803 32.4548 131.445 33.0087 131.183C33.5727 130.911 34.2576 130.776 35.0633 130.776C35.869 130.776 36.5488 130.911 37.1027 131.183C37.6667 131.445 38.0847 131.803 38.3566 132.256C38.6386 132.699 38.7796 133.193 38.7796 133.736C38.7796 134.29 38.6436 134.779 38.3717 135.202C38.0998 135.615 37.7372 135.937 37.284 136.169C37.8379 136.41 38.271 136.763 38.5832 137.226C38.8954 137.689 39.0515 138.238 39.0515 138.873C39.0515 139.558 38.8753 140.157 38.5228 140.671C38.1804 141.174 37.707 141.562 37.1027 141.834C36.4985 142.106 35.8186 142.242 35.0633 142.242C34.3079 142.242 33.6281 142.106 33.0238 141.834C32.4296 141.562 31.9563 141.174 31.6038 140.671C31.2614 140.157 31.0902 139.558 31.0902 138.873C31.0902 138.238 31.2463 137.689 31.5585 137.226C31.8707 136.753 32.3037 136.4 32.8577 136.169ZM36.7251 134.039C36.7251 133.545 36.574 133.162 36.2718 132.89C35.9798 132.619 35.5769 132.483 35.0633 132.483C34.5597 132.483 34.1569 132.619 33.8547 132.89C33.5627 133.162 33.4166 133.55 33.4166 134.054C33.4166 134.507 33.5677 134.87 33.8698 135.141C34.1821 135.413 34.5799 135.549 35.0633 135.549C35.5467 135.549 35.9445 135.413 36.2567 135.141C36.569 134.859 36.7251 134.492 36.7251 134.039ZM35.0633 137.09C34.4892 137.09 34.0209 137.236 33.6583 137.528C33.3058 137.82 33.1296 138.238 33.1296 138.782C33.1296 139.286 33.3008 139.699 33.6432 140.021C33.9957 140.333 34.4691 140.489 35.0633 140.489C35.6575 140.489 36.1258 140.328 36.4682 140.006C36.8107 139.684 36.9819 139.276 36.9819 138.782C36.9819 138.248 36.8056 137.836 36.4531 137.543C36.1006 137.241 35.6374 137.09 35.0633 137.09ZM48.6532 134.718C48.6532 135.282 48.5172 135.811 48.2453 136.305C47.9835 136.798 47.5655 137.196 46.9914 137.498C46.4274 137.8 45.7124 137.951 44.8462 137.951H43.0787V142H40.9637V131.455H44.8462C45.662 131.455 46.3569 131.596 46.931 131.878C47.5051 132.16 47.9331 132.548 48.2151 133.042C48.5072 133.535 48.6532 134.094 48.6532 134.718ZM44.7556 136.244C45.3397 136.244 45.7728 136.113 46.0548 135.851C46.3368 135.58 46.4778 135.202 46.4778 134.718C46.4778 133.691 45.9037 133.178 44.7556 133.178H43.0787V136.244H44.7556ZM61.6512 131.455V142H59.5362V135.141L56.7112 142H55.1099L52.2698 135.141V142H50.1548V131.455H52.5568L55.9106 139.296L59.2643 131.455H61.6512ZM71.028 131.455C72.1359 131.455 73.1078 131.672 73.9437 132.105C74.7897 132.538 75.4393 133.157 75.8925 133.963C76.3558 134.759 76.5874 135.685 76.5874 136.743C76.5874 137.8 76.3558 138.727 75.8925 139.522C75.4393 140.308 74.7897 140.917 73.9437 141.35C73.1078 141.783 72.1359 142 71.028 142H67.3419V131.455H71.028ZM70.9525 140.202C72.0604 140.202 72.9164 139.9 73.5207 139.296C74.125 138.692 74.4271 137.841 74.4271 136.743C74.4271 135.645 74.125 134.789 73.5207 134.175C72.9164 133.55 72.0604 133.238 70.9525 133.238H69.4569V140.202H70.9525ZM79.2432 132.634C78.8705 132.634 78.5583 132.518 78.3065 132.286C78.0648 132.045 77.944 131.747 77.944 131.395C77.944 131.042 78.0648 130.75 78.3065 130.519C78.5583 130.277 78.8705 130.156 79.2432 130.156C79.6158 130.156 79.923 130.277 80.1647 130.519C80.4165 130.75 80.5424 131.042 80.5424 131.395C80.5424 131.747 80.4165 132.045 80.1647 132.286C79.923 132.518 79.6158 132.634 79.2432 132.634ZM80.2856 133.631V142H78.1706V133.631H80.2856ZM87.013 133.51C88.0101 133.51 88.8158 133.827 89.4301 134.462C90.0445 135.086 90.3516 135.962 90.3516 137.09V142H88.2367V137.377C88.2367 136.713 88.0705 136.204 87.7381 135.851C87.4058 135.489 86.9526 135.308 86.3785 135.308C85.7944 135.308 85.3311 135.489 84.9887 135.851C84.6563 136.204 84.4901 136.713 84.4901 137.377V142H82.3752V133.631H84.4901V134.673C84.7721 134.311 85.1297 134.029 85.5627 133.827C86.0059 133.616 86.4893 133.51 87.013 133.51ZM97.0007 133.51C97.9978 133.51 98.8035 133.827 99.4178 134.462C100.032 135.086 100.339 135.962 100.339 137.09V142H98.2244V137.377C98.2244 136.713 98.0582 136.204 97.7259 135.851C97.3935 135.489 96.9403 135.308 96.3662 135.308C95.7821 135.308 95.3188 135.489 94.9764 135.851C94.644 136.204 94.4778 136.713 94.4778 137.377V142H92.3629V133.631H94.4778V134.673C94.7598 134.311 95.1174 134.029 95.5504 133.827C95.9936 133.616 96.477 133.51 97.0007 133.51ZM110.131 137.634C110.131 137.936 110.111 138.208 110.07 138.45H103.952C104.002 139.054 104.214 139.527 104.586 139.87C104.959 140.212 105.417 140.384 105.961 140.384C106.747 140.384 107.306 140.046 107.638 139.371H109.919C109.677 140.177 109.214 140.842 108.529 141.366C107.844 141.879 107.004 142.136 106.006 142.136C105.201 142.136 104.476 141.96 103.831 141.607C103.197 141.245 102.698 140.736 102.335 140.081C101.983 139.427 101.807 138.671 101.807 137.815C101.807 136.949 101.983 136.189 102.335 135.534C102.688 134.88 103.181 134.376 103.816 134.024C104.45 133.671 105.181 133.495 106.006 133.495C106.802 133.495 107.512 133.666 108.137 134.008C108.771 134.351 109.26 134.839 109.602 135.474C109.954 136.098 110.131 136.818 110.131 137.634ZM107.94 137.03C107.93 136.486 107.734 136.053 107.351 135.731C106.968 135.398 106.5 135.232 105.946 135.232C105.422 135.232 104.979 135.393 104.617 135.715C104.264 136.028 104.048 136.466 103.967 137.03H107.94ZM113.789 134.93C114.061 134.487 114.414 134.139 114.847 133.888C115.29 133.636 115.794 133.51 116.358 133.51V135.731H115.799C115.134 135.731 114.63 135.887 114.288 136.199C113.956 136.511 113.789 137.055 113.789 137.83V142H111.674V133.631H113.789V134.93Z" fill="white"/>
<path d="M437.704 131.848C438.92 131.848 439.971 132.077 440.856 132.536C441.752 132.984 442.435 133.629 442.904 134.472C443.384 135.315 443.624 136.307 443.624 137.448C443.624 138.589 443.384 139.581 442.904 140.424C442.435 141.256 441.752 141.896 440.856 142.344C439.971 142.781 438.92 143 437.704 143H434.232V131.848H437.704ZM437.704 141.8C439.144 141.8 440.243 141.421 441 140.664C441.757 139.896 442.136 138.824 442.136 137.448C442.136 136.061 441.752 134.979 440.984 134.2C440.227 133.421 439.133 133.032 437.704 133.032H435.688V141.8H437.704ZM453.545 138.28C453.545 138.557 453.529 138.851 453.497 139.16H446.489C446.542 140.024 446.835 140.701 447.369 141.192C447.913 141.672 448.569 141.912 449.337 141.912C449.966 141.912 450.489 141.768 450.905 141.48C451.331 141.181 451.63 140.787 451.801 140.296H453.369C453.134 141.139 452.665 141.827 451.961 142.36C451.257 142.883 450.382 143.144 449.337 143.144C448.505 143.144 447.758 142.957 447.097 142.584C446.446 142.211 445.934 141.683 445.561 141C445.187 140.307 445.001 139.507 445.001 138.6C445.001 137.693 445.182 136.899 445.545 136.216C445.907 135.533 446.414 135.011 447.065 134.648C447.726 134.275 448.483 134.088 449.337 134.088C450.169 134.088 450.905 134.269 451.545 134.632C452.185 134.995 452.675 135.496 453.017 136.136C453.369 136.765 453.545 137.48 453.545 138.28ZM452.041 137.976C452.041 137.421 451.918 136.947 451.673 136.552C451.427 136.147 451.091 135.843 450.665 135.64C450.249 135.427 449.785 135.32 449.273 135.32C448.537 135.32 447.907 135.555 447.385 136.024C446.873 136.493 446.579 137.144 446.505 137.976H452.041ZM457.242 135.432V140.6C457.242 141.027 457.333 141.331 457.514 141.512C457.696 141.683 458.01 141.768 458.458 141.768H459.53V143H458.218C457.408 143 456.8 142.813 456.394 142.44C455.989 142.067 455.786 141.453 455.786 140.6V135.432H454.65V134.232H455.786V132.024H457.242V134.232H459.53V135.432H457.242ZM460.751 138.584C460.751 137.688 460.932 136.904 461.295 136.232C461.657 135.549 462.153 135.021 462.783 134.648C463.423 134.275 464.132 134.088 464.911 134.088C465.679 134.088 466.345 134.253 466.911 134.584C467.476 134.915 467.897 135.331 468.175 135.832V134.232H469.647V143H468.175V141.368C467.887 141.88 467.455 142.307 466.879 142.648C466.313 142.979 465.652 143.144 464.895 143.144C464.116 143.144 463.412 142.952 462.783 142.568C462.153 142.184 461.657 141.645 461.295 140.952C460.932 140.259 460.751 139.469 460.751 138.584ZM468.175 138.6C468.175 137.939 468.041 137.363 467.775 136.872C467.508 136.381 467.145 136.008 466.687 135.752C466.239 135.485 465.743 135.352 465.199 135.352C464.655 135.352 464.159 135.48 463.711 135.736C463.263 135.992 462.905 136.365 462.639 136.856C462.372 137.347 462.239 137.923 462.239 138.584C462.239 139.256 462.372 139.843 462.639 140.344C462.905 140.835 463.263 141.213 463.711 141.48C464.159 141.736 464.655 141.864 465.199 141.864C465.743 141.864 466.239 141.736 466.687 141.48C467.145 141.213 467.508 140.835 467.775 140.344C468.041 139.843 468.175 139.261 468.175 138.6ZM472.859 132.808C472.582 132.808 472.347 132.712 472.155 132.52C471.963 132.328 471.867 132.093 471.867 131.816C471.867 131.539 471.963 131.304 472.155 131.112C472.347 130.92 472.582 130.824 472.859 130.824C473.126 130.824 473.35 130.92 473.531 131.112C473.723 131.304 473.819 131.539 473.819 131.816C473.819 132.093 473.723 132.328 473.531 132.52C473.35 132.712 473.126 132.808 472.859 132.808ZM473.563 134.232V143H472.107V134.232H473.563ZM477.501 131.16V143H476.045V131.16H477.501ZM483.086 143.144C482.414 143.144 481.811 143.032 481.278 142.808C480.745 142.573 480.323 142.253 480.014 141.848C479.705 141.432 479.534 140.957 479.502 140.424H481.006C481.049 140.861 481.251 141.219 481.614 141.496C481.987 141.773 482.473 141.912 483.07 141.912C483.625 141.912 484.062 141.789 484.382 141.544C484.702 141.299 484.862 140.989 484.862 140.616C484.862 140.232 484.691 139.949 484.35 139.768C484.009 139.576 483.481 139.389 482.766 139.208C482.115 139.037 481.582 138.867 481.166 138.696C480.761 138.515 480.409 138.253 480.11 137.912C479.822 137.56 479.678 137.101 479.678 136.536C479.678 136.088 479.811 135.677 480.078 135.304C480.345 134.931 480.723 134.637 481.214 134.424C481.705 134.2 482.265 134.088 482.894 134.088C483.865 134.088 484.649 134.333 485.246 134.824C485.843 135.315 486.163 135.987 486.206 136.84H484.75C484.718 136.381 484.531 136.013 484.19 135.736C483.859 135.459 483.411 135.32 482.846 135.32C482.323 135.32 481.907 135.432 481.598 135.656C481.289 135.88 481.134 136.173 481.134 136.536C481.134 136.824 481.225 137.064 481.406 137.256C481.598 137.437 481.833 137.587 482.11 137.704C482.398 137.811 482.793 137.933 483.294 138.072C483.923 138.243 484.435 138.413 484.83 138.584C485.225 138.744 485.561 138.989 485.838 139.32C486.126 139.651 486.275 140.083 486.286 140.616C486.286 141.096 486.153 141.528 485.886 141.912C485.619 142.296 485.241 142.6 484.75 142.824C484.27 143.037 483.715 143.144 483.086 143.144Z" fill="white"/>
<rect y="243.233" width="555.181" height="1.88837" fill="#D9D9D9"/>
<rect x="519.302" y="204.521" width="2.83256" height="19.8279" fill="white"/>
<rect x="530.633" y="213.019" width="2.83256" height="19.8279" transform="rotate(90 530.633 213.019)" fill="white"/>
<path d="M45.3511 208.144L42.4053 218.688H39.9126L37.9336 211.18L35.864 218.688L33.3864 218.703L30.5463 208.144H32.8124L34.6705 216.332L36.8157 208.144H39.1724L41.1967 216.286L43.07 208.144H45.3511ZM50.4484 218.824C49.6427 218.824 48.9176 218.648 48.273 218.296C47.6285 217.933 47.1199 217.424 46.7472 216.77C46.3847 216.115 46.2034 215.36 46.2034 214.504C46.2034 213.648 46.3897 212.892 46.7623 212.238C47.1451 211.583 47.6637 211.079 48.3184 210.727C48.973 210.364 49.7032 210.183 50.5089 210.183C51.3146 210.183 52.0448 210.364 52.6994 210.727C53.354 211.079 53.8677 211.583 54.2403 212.238C54.623 212.892 54.8144 213.648 54.8144 214.504C54.8144 215.36 54.618 216.115 54.2252 216.77C53.8425 217.424 53.3188 217.933 52.6541 218.296C51.9994 218.648 51.2642 218.824 50.4484 218.824ZM50.4484 216.981C50.8312 216.981 51.1887 216.891 51.521 216.709C51.8635 216.518 52.1354 216.236 52.3368 215.863C52.5382 215.491 52.639 215.038 52.639 214.504C52.639 213.708 52.4275 213.099 52.0045 212.676C51.5915 212.243 51.0829 212.026 50.4787 212.026C49.8744 212.026 49.3658 212.243 48.9529 212.676C48.55 213.099 48.3486 213.708 48.3486 214.504C48.3486 215.299 48.545 215.914 48.9378 216.347C49.3406 216.77 49.8442 216.981 50.4484 216.981ZM58.4808 211.618C58.7527 211.175 59.1052 210.828 59.5382 210.576C59.9814 210.324 60.4849 210.198 61.0489 210.198V212.419H60.49C59.8253 212.419 59.3217 212.575 58.9793 212.887C58.6469 213.199 58.4808 213.743 58.4808 214.519V218.688H56.3658V210.319H58.4808V211.618ZM67.4286 218.688L64.5885 215.123V218.688H62.4735V207.509H64.5885V213.869L67.3984 210.319H70.1478L66.4617 214.519L70.178 218.688H67.4286ZM81.044 208.144V215.546C81.044 216.573 80.7469 217.374 80.1527 217.948C79.5585 218.512 78.7628 218.794 77.7658 218.794C76.7586 218.794 75.9428 218.502 75.3184 217.918C74.7041 217.334 74.3969 216.518 74.3969 215.471H76.5119C76.5219 215.924 76.6277 216.276 76.8291 216.528C77.0406 216.78 77.3428 216.906 77.7355 216.906C78.1183 216.906 78.4103 216.785 78.6117 216.543C78.8132 216.301 78.9139 215.969 78.9139 215.546V208.144H81.044ZM87.1519 218.794C86.4167 218.794 85.752 218.668 85.1578 218.416C84.5737 218.165 84.1104 217.802 83.7679 217.329C83.4255 216.855 83.2493 216.296 83.2392 215.652H85.5052C85.5355 216.085 85.6865 216.427 85.9585 216.679C86.2405 216.931 86.6232 217.057 87.1066 217.057C87.6001 217.057 87.9878 216.941 88.2698 216.709C88.5518 216.468 88.6928 216.155 88.6928 215.773C88.6928 215.46 88.5971 215.204 88.4058 215.002C88.2144 214.801 87.9727 214.645 87.6807 214.534C87.3987 214.413 87.0059 214.282 86.5023 214.141C85.8175 213.94 85.2585 213.743 84.8254 213.552C84.4024 213.351 84.0348 213.053 83.7226 212.661C83.4205 212.258 83.2694 211.724 83.2694 211.059C83.2694 210.435 83.4255 209.891 83.7377 209.428C84.0499 208.964 84.488 208.612 85.052 208.37C85.616 208.119 86.2606 207.993 86.9857 207.993C88.0734 207.993 88.9547 208.26 89.6295 208.793C90.3143 209.317 90.692 210.052 90.7625 210.999H88.436C88.4159 210.636 88.2598 210.339 87.9677 210.108C87.6857 209.866 87.308 209.745 86.8347 209.745C86.4217 209.745 86.0894 209.851 85.8376 210.062C85.5959 210.274 85.475 210.581 85.475 210.984C85.475 211.266 85.5657 211.502 85.747 211.694C85.9383 211.875 86.17 212.026 86.4419 212.147C86.7239 212.258 87.1167 212.389 87.6202 212.54C88.3051 212.741 88.864 212.943 89.2971 213.144C89.7302 213.346 90.1028 213.648 90.415 214.051C90.7272 214.453 90.8833 214.982 90.8833 215.637C90.8833 216.201 90.7373 216.724 90.4452 217.208C90.1532 217.691 89.7251 218.079 89.1611 218.371C88.5971 218.653 87.9274 218.794 87.1519 218.794Z" fill="white"/>
<rect x="92" y="112" width="253" height="73" fill="#14D227"/>
<path d="M137.912 143.88V155H136.088V147.384L132.696 155H131.432L128.024 147.384V155H126.2V143.88H128.168L132.072 152.6L135.96 143.88H137.912ZM139.701 150.552C139.701 149.667 139.883 148.883 140.245 148.2C140.619 147.517 141.12 146.989 141.749 146.616C142.389 146.232 143.093 146.04 143.861 146.04C144.555 146.04 145.157 146.179 145.669 146.456C146.192 146.723 146.608 147.059 146.917 147.464V146.184H148.757V155H146.917V153.688C146.608 154.104 146.187 154.451 145.653 154.728C145.12 155.005 144.512 155.144 143.829 155.144C143.072 155.144 142.379 154.952 141.749 154.568C141.12 154.173 140.619 153.629 140.245 152.936C139.883 152.232 139.701 151.437 139.701 150.552ZM146.917 150.584C146.917 149.976 146.789 149.448 146.533 149C146.288 148.552 145.963 148.211 145.557 147.976C145.152 147.741 144.715 147.624 144.245 147.624C143.776 147.624 143.339 147.741 142.933 147.976C142.528 148.2 142.197 148.536 141.941 148.984C141.696 149.421 141.573 149.944 141.573 150.552C141.573 151.16 141.696 151.693 141.941 152.152C142.197 152.611 142.528 152.963 142.933 153.208C143.349 153.443 143.787 153.56 144.245 153.56C144.715 153.56 145.152 153.443 145.557 153.208C145.963 152.973 146.288 152.632 146.533 152.184C146.789 151.725 146.917 151.192 146.917 150.584ZM154.641 150.6L158.705 155H156.241L152.977 151.208V155H151.153V143.16H152.977V150.04L156.177 146.184H158.705L154.641 150.6ZM168.093 150.376C168.093 150.707 168.071 151.005 168.029 151.272H161.293C161.346 151.976 161.607 152.541 162.077 152.968C162.546 153.395 163.122 153.608 163.805 153.608C164.786 153.608 165.479 153.197 165.885 152.376H167.852C167.586 153.187 167.101 153.853 166.397 154.376C165.703 154.888 164.839 155.144 163.805 155.144C162.962 155.144 162.205 154.957 161.533 154.584C160.871 154.2 160.349 153.667 159.965 152.984C159.591 152.291 159.405 151.491 159.405 150.584C159.405 149.677 159.586 148.883 159.949 148.2C160.322 147.507 160.839 146.973 161.501 146.6C162.173 146.227 162.941 146.04 163.805 146.04C164.637 146.04 165.378 146.221 166.029 146.584C166.679 146.947 167.186 147.459 167.549 148.12C167.911 148.771 168.093 149.523 168.093 150.376ZM166.189 149.8C166.178 149.128 165.938 148.589 165.469 148.184C164.999 147.779 164.418 147.576 163.725 147.576C163.095 147.576 162.557 147.779 162.109 148.184C161.661 148.579 161.394 149.117 161.309 149.8H166.189ZM173.436 150.552C173.436 149.667 173.617 148.883 173.98 148.2C174.353 147.517 174.854 146.989 175.484 146.616C176.124 146.232 176.828 146.04 177.596 146.04C178.289 146.04 178.892 146.179 179.404 146.456C179.926 146.723 180.342 147.059 180.652 147.464V146.184H182.492V155H180.652V153.688C180.342 154.104 179.921 154.451 179.388 154.728C178.854 155.005 178.246 155.144 177.564 155.144C176.806 155.144 176.113 154.952 175.484 154.568C174.854 154.173 174.353 153.629 173.98 152.936C173.617 152.232 173.436 151.437 173.436 150.552ZM180.652 150.584C180.652 149.976 180.524 149.448 180.268 149C180.022 148.552 179.697 148.211 179.292 147.976C178.886 147.741 178.449 147.624 177.98 147.624C177.51 147.624 177.073 147.741 176.668 147.976C176.262 148.2 175.932 148.536 175.676 148.984C175.43 149.421 175.308 149.944 175.308 150.552C175.308 151.16 175.43 151.693 175.676 152.152C175.932 152.611 176.262 152.963 176.668 153.208C177.084 153.443 177.521 153.56 177.98 153.56C178.449 153.56 178.886 153.443 179.292 153.208C179.697 152.973 180.022 152.632 180.268 152.184C180.524 151.725 180.652 151.192 180.652 150.584ZM190.868 147.496C191.177 147.069 191.598 146.723 192.132 146.456C192.676 146.179 193.278 146.04 193.94 146.04C194.718 146.04 195.422 146.227 196.052 146.6C196.681 146.973 197.177 147.507 197.54 148.2C197.902 148.883 198.084 149.667 198.084 150.552C198.084 151.437 197.902 152.232 197.54 152.936C197.177 153.629 196.676 154.173 196.036 154.568C195.406 154.952 194.708 155.144 193.94 155.144C193.257 155.144 192.649 155.011 192.116 154.744C191.593 154.477 191.177 154.136 190.868 153.72V155H189.044V143.16H190.868V147.496ZM196.228 150.552C196.228 149.944 196.1 149.421 195.844 148.984C195.598 148.536 195.268 148.2 194.852 147.976C194.446 147.741 194.009 147.624 193.54 147.624C193.081 147.624 192.644 147.741 192.228 147.976C191.822 148.211 191.492 148.552 191.236 149C190.99 149.448 190.868 149.976 190.868 150.584C190.868 151.192 190.99 151.725 191.236 152.184C191.492 152.632 191.822 152.973 192.228 153.208C192.644 153.443 193.081 153.56 193.54 153.56C194.009 153.56 194.446 153.443 194.852 153.208C195.268 152.963 195.598 152.611 195.844 152.152C196.1 151.693 196.228 151.16 196.228 150.552ZM207.968 150.376C207.968 150.707 207.946 151.005 207.904 151.272H201.168C201.221 151.976 201.482 152.541 201.952 152.968C202.421 153.395 202.997 153.608 203.68 153.608C204.661 153.608 205.354 153.197 205.76 152.376H207.727C207.461 153.187 206.976 153.853 206.272 154.376C205.578 154.888 204.714 155.144 203.68 155.144C202.837 155.144 202.08 154.957 201.408 154.584C200.746 154.2 200.224 153.667 199.84 152.984C199.466 152.291 199.28 151.491 199.28 150.584C199.28 149.677 199.461 148.883 199.824 148.2C200.197 147.507 200.714 146.973 201.376 146.6C202.048 146.227 202.816 146.04 203.68 146.04C204.512 146.04 205.253 146.221 205.904 146.584C206.554 146.947 207.061 147.459 207.424 148.12C207.786 148.771 207.968 149.523 207.968 150.376ZM206.064 149.8C206.053 149.128 205.813 148.589 205.344 148.184C204.874 147.779 204.293 147.576 203.6 147.576C202.97 147.576 202.432 147.779 201.984 148.184C201.536 148.579 201.269 149.117 201.184 149.8H206.064ZM217.843 150.376C217.843 150.707 217.821 151.005 217.779 151.272H211.043C211.096 151.976 211.357 152.541 211.827 152.968C212.296 153.395 212.872 153.608 213.555 153.608C214.536 153.608 215.229 153.197 215.635 152.376H217.602C217.336 153.187 216.851 153.853 216.147 154.376C215.453 154.888 214.589 155.144 213.555 155.144C212.712 155.144 211.955 154.957 211.283 154.584C210.621 154.2 210.099 153.667 209.715 152.984C209.341 152.291 209.155 151.491 209.155 150.584C209.155 149.677 209.336 148.883 209.699 148.2C210.072 147.507 210.589 146.973 211.251 146.6C211.923 146.227 212.691 146.04 213.555 146.04C214.387 146.04 215.128 146.221 215.779 146.584C216.429 146.947 216.936 147.459 217.299 148.12C217.661 148.771 217.843 149.523 217.843 150.376ZM215.939 149.8C215.928 149.128 215.688 148.589 215.219 148.184C214.749 147.779 214.168 147.576 213.475 147.576C212.845 147.576 212.307 147.779 211.859 148.184C211.411 148.579 211.144 149.117 211.059 149.8H215.939ZM223.334 147.672H221.702V155H219.862V147.672H218.822V146.184H219.862V145.56C219.862 144.547 220.128 143.811 220.662 143.352C221.206 142.883 222.054 142.648 223.206 142.648V144.168C222.651 144.168 222.262 144.275 222.038 144.488C221.814 144.691 221.702 145.048 221.702 145.56V146.184H223.334V147.672ZM232.802 147.672H231.17V155H229.33V147.672H228.29V146.184H229.33V145.56C229.33 144.547 229.597 143.811 230.13 143.352C230.674 142.883 231.522 142.648 232.674 142.648V144.168C232.12 144.168 231.73 144.275 231.506 144.488C231.282 144.691 231.17 145.048 231.17 145.56V146.184H232.802V147.672ZM238.243 155.144C237.411 155.144 236.659 154.957 235.987 154.584C235.315 154.2 234.787 153.667 234.403 152.984C234.019 152.291 233.827 151.491 233.827 150.584C233.827 149.688 234.024 148.893 234.419 148.2C234.813 147.507 235.352 146.973 236.035 146.6C236.717 146.227 237.48 146.04 238.323 146.04C239.165 146.04 239.928 146.227 240.611 146.6C241.293 146.973 241.832 147.507 242.227 148.2C242.621 148.893 242.819 149.688 242.819 150.584C242.819 151.48 242.616 152.275 242.211 152.968C241.805 153.661 241.251 154.2 240.547 154.584C239.853 154.957 239.085 155.144 238.243 155.144ZM238.243 153.56C238.712 153.56 239.149 153.448 239.555 153.224C239.971 153 240.307 152.664 240.563 152.216C240.819 151.768 240.947 151.224 240.947 150.584C240.947 149.944 240.824 149.405 240.579 148.968C240.333 148.52 240.008 148.184 239.603 147.96C239.197 147.736 238.76 147.624 238.291 147.624C237.821 147.624 237.384 147.736 236.979 147.96C236.584 148.184 236.269 148.52 236.035 148.968C235.8 149.405 235.683 149.944 235.683 150.584C235.683 151.533 235.923 152.269 236.403 152.792C236.893 153.304 237.507 153.56 238.243 153.56ZM246.446 147.464C246.713 147.016 247.065 146.669 247.502 146.424C247.95 146.168 248.478 146.04 249.086 146.04V147.928H248.622C247.907 147.928 247.363 148.109 246.99 148.472C246.627 148.835 246.446 149.464 246.446 150.36V155H244.622V146.184H246.446V147.464ZM257.047 147.672V152.552C257.047 152.883 257.121 153.123 257.271 153.272C257.431 153.411 257.697 153.48 258.071 153.48H259.191V155H257.751C256.929 155 256.3 154.808 255.863 154.424C255.425 154.04 255.207 153.416 255.207 152.552V147.672H254.167V146.184H255.207V143.992H257.047V146.184H259.191V147.672H257.047ZM264.696 155.144C263.864 155.144 263.112 154.957 262.44 154.584C261.768 154.2 261.24 153.667 260.856 152.984C260.472 152.291 260.28 151.491 260.28 150.584C260.28 149.688 260.477 148.893 260.872 148.2C261.267 147.507 261.805 146.973 262.488 146.6C263.171 146.227 263.933 146.04 264.776 146.04C265.619 146.04 266.381 146.227 267.064 146.6C267.747 146.973 268.285 147.507 268.68 148.2C269.075 148.893 269.272 149.688 269.272 150.584C269.272 151.48 269.069 152.275 268.664 152.968C268.259 153.661 267.704 154.2 267 154.584C266.307 154.957 265.539 155.144 264.696 155.144ZM264.696 153.56C265.165 153.56 265.603 153.448 266.008 153.224C266.424 153 266.76 152.664 267.016 152.216C267.272 151.768 267.4 151.224 267.4 150.584C267.4 149.944 267.277 149.405 267.032 148.968C266.787 148.52 266.461 148.184 266.056 147.96C265.651 147.736 265.213 147.624 264.744 147.624C264.275 147.624 263.837 147.736 263.432 147.96C263.037 148.184 262.723 148.52 262.488 148.968C262.253 149.405 262.136 149.944 262.136 150.584C262.136 151.533 262.376 152.269 262.856 152.792C263.347 153.304 263.96 153.56 264.696 153.56ZM275.523 146.04C276.216 146.04 276.835 146.184 277.379 146.472C277.934 146.76 278.366 147.187 278.675 147.752C278.984 148.317 279.139 149 279.139 149.8V155H277.331V150.072C277.331 149.283 277.134 148.68 276.739 148.264C276.344 147.837 275.806 147.624 275.123 147.624C274.44 147.624 273.896 147.837 273.491 148.264C273.096 148.68 272.899 149.283 272.899 150.072V155H271.075V146.184H272.899V147.192C273.198 146.829 273.576 146.547 274.035 146.344C274.504 146.141 275 146.04 275.523 146.04ZM282.394 145.016C282.063 145.016 281.786 144.904 281.562 144.68C281.338 144.456 281.226 144.179 281.226 143.848C281.226 143.517 281.338 143.24 281.562 143.016C281.786 142.792 282.063 142.68 282.394 142.68C282.714 142.68 282.986 142.792 283.21 143.016C283.434 143.24 283.546 143.517 283.546 143.848C283.546 144.179 283.434 144.456 283.21 144.68C282.986 144.904 282.714 145.016 282.394 145.016ZM283.29 146.184V155H281.466V146.184H283.29ZM289.236 146.04C289.919 146.04 290.522 146.179 291.044 146.456C291.578 146.723 291.994 147.059 292.292 147.464V146.184H294.132V155.144C294.132 155.955 293.962 156.675 293.62 157.304C293.279 157.944 292.783 158.445 292.132 158.808C291.492 159.171 290.724 159.352 289.828 159.352C288.634 159.352 287.642 159.069 286.852 158.504C286.063 157.949 285.615 157.192 285.508 156.232H287.316C287.455 156.691 287.748 157.059 288.196 157.336C288.655 157.624 289.199 157.768 289.828 157.768C290.564 157.768 291.156 157.544 291.604 157.096C292.063 156.648 292.292 155.997 292.292 155.144V153.672C291.983 154.088 291.562 154.44 291.028 154.728C290.506 155.005 289.908 155.144 289.236 155.144C288.468 155.144 287.764 154.952 287.124 154.568C286.495 154.173 285.994 153.629 285.62 152.936C285.258 152.232 285.076 151.437 285.076 150.552C285.076 149.667 285.258 148.883 285.62 148.2C285.994 147.517 286.495 146.989 287.124 146.616C287.764 146.232 288.468 146.04 289.236 146.04ZM292.292 150.584C292.292 149.976 292.164 149.448 291.908 149C291.663 148.552 291.338 148.211 290.932 147.976C290.527 147.741 290.09 147.624 289.62 147.624C289.151 147.624 288.714 147.741 288.308 147.976C287.903 148.2 287.572 148.536 287.316 148.984C287.071 149.421 286.948 149.944 286.948 150.552C286.948 151.16 287.071 151.693 287.316 152.152C287.572 152.611 287.903 152.963 288.308 153.208C288.724 153.443 289.162 153.56 289.62 153.56C290.09 153.56 290.527 153.443 290.932 153.208C291.338 152.973 291.663 152.632 291.908 152.184C292.164 151.725 292.292 151.192 292.292 150.584ZM301.088 146.04C301.76 146.04 302.357 146.184 302.88 146.472C303.413 146.76 303.829 147.187 304.128 147.752C304.437 148.317 304.592 149 304.592 149.8V155H302.784V150.072C302.784 149.283 302.587 148.68 302.192 148.264C301.797 147.837 301.259 147.624 300.576 147.624C299.893 147.624 299.349 147.837 298.944 148.264C298.549 148.68 298.352 149.283 298.352 150.072V155H296.528V143.16H298.352V147.208C298.661 146.835 299.051 146.547 299.52 146.344C300 146.141 300.523 146.04 301.088 146.04ZM309.047 147.672V152.552C309.047 152.883 309.121 153.123 309.271 153.272C309.431 153.411 309.697 153.48 310.071 153.48H311.191V155H309.751C308.929 155 308.3 154.808 307.863 154.424C307.425 154.04 307.207 153.416 307.207 152.552V147.672H306.167V146.184H307.207V143.992H309.047V146.184H311.191V147.672H309.047Z" fill="black"/>
</svg>
