<svg width="609" height="324" viewBox="0 0 609 324" fill="none" xmlns="http://www.w3.org/2000/svg">
<rect x="53.8186" y="101.972" width="555.181" height="69.8698" fill="#14D227"/>
<path d="M96.0048 131.133L92.8928 141.633H90.944L88.7384 133.686L86.3968 141.633L84.4631 141.648L81.487 131.133H83.315L85.4904 139.684L87.8471 131.133H89.7808L91.9713 139.638L94.1618 131.133H96.0048ZM96.8512 137.433C96.8512 136.597 97.0224 135.857 97.3648 135.212C97.7173 134.568 98.1907 134.069 98.7849 133.717C99.3892 133.354 100.054 133.173 100.779 133.173C101.434 133.173 102.003 133.304 102.486 133.565C102.98 133.817 103.372 134.134 103.664 134.517V133.309H105.402V141.633H103.664V140.394C103.372 140.787 102.975 141.114 102.471 141.376C101.967 141.638 101.393 141.769 100.749 141.769C100.034 141.769 99.3791 141.587 98.7849 141.225C98.1907 140.852 97.7173 140.338 97.3648 139.684C97.0224 139.019 96.8512 138.269 96.8512 137.433ZM103.664 137.463C103.664 136.889 103.544 136.39 103.302 135.967C103.07 135.544 102.763 135.222 102.38 135.001C101.998 134.779 101.585 134.668 101.142 134.668C100.698 134.668 100.285 134.779 99.9028 135.001C99.5201 135.212 99.2079 135.529 98.9662 135.952C98.7345 136.365 98.6187 136.859 98.6187 137.433C98.6187 138.007 98.7345 138.51 98.9662 138.944C99.2079 139.377 99.5201 139.709 99.9028 139.941C100.296 140.162 100.708 140.273 101.142 140.273C101.585 140.273 101.998 140.162 102.38 139.941C102.763 139.719 103.07 139.397 103.302 138.974C103.544 138.541 103.664 138.037 103.664 137.463ZM110.685 141.769C110.031 141.769 109.441 141.653 108.918 141.421C108.404 141.179 107.996 140.857 107.694 140.454C107.392 140.041 107.231 139.583 107.211 139.079H108.993C109.023 139.432 109.19 139.729 109.492 139.971C109.804 140.202 110.192 140.318 110.655 140.318C111.138 140.318 111.511 140.228 111.773 140.046C112.045 139.855 112.181 139.613 112.181 139.321C112.181 139.009 112.03 138.777 111.728 138.626C111.435 138.475 110.967 138.309 110.323 138.128C109.698 137.957 109.19 137.79 108.797 137.629C108.404 137.468 108.062 137.221 107.77 136.889C107.488 136.557 107.347 136.119 107.347 135.575C107.347 135.132 107.477 134.729 107.739 134.366C108.001 133.993 108.374 133.701 108.857 133.49C109.351 133.278 109.915 133.173 110.549 133.173C111.496 133.173 112.256 133.414 112.83 133.898C113.414 134.371 113.727 135.021 113.767 135.847H112.045C112.015 135.474 111.863 135.177 111.592 134.955C111.32 134.734 110.952 134.623 110.489 134.623C110.036 134.623 109.688 134.709 109.446 134.88C109.205 135.051 109.084 135.278 109.084 135.56C109.084 135.781 109.164 135.967 109.326 136.119C109.487 136.27 109.683 136.39 109.915 136.481C110.146 136.562 110.489 136.667 110.942 136.798C111.546 136.959 112.04 137.126 112.422 137.297C112.815 137.458 113.153 137.7 113.435 138.022C113.717 138.344 113.863 138.772 113.873 139.306C113.873 139.779 113.742 140.202 113.48 140.575C113.218 140.948 112.845 141.24 112.362 141.451C111.889 141.663 111.33 141.769 110.685 141.769ZM120.039 133.173C120.674 133.173 121.238 133.309 121.731 133.581C122.235 133.852 122.627 134.255 122.909 134.789C123.201 135.323 123.348 135.967 123.348 136.723V141.633H121.64V136.98C121.64 136.234 121.454 135.665 121.081 135.273C120.709 134.87 120.2 134.668 119.556 134.668C118.911 134.668 118.397 134.87 118.015 135.273C117.642 135.665 117.456 136.234 117.456 136.98V141.633H115.734V130.453H117.456V134.275C117.748 133.923 118.115 133.651 118.559 133.46C119.012 133.268 119.505 133.173 120.039 133.173ZM131.478 134.714V139.321C131.478 139.633 131.548 139.86 131.689 140.001C131.84 140.132 132.092 140.197 132.445 140.197H133.502V141.633H132.142C131.367 141.633 130.773 141.451 130.36 141.089C129.947 140.726 129.74 140.137 129.74 139.321V134.714H128.759V133.309H129.74V131.239H131.478V133.309H133.502V134.714H131.478ZM139.395 133.173C140.029 133.173 140.593 133.309 141.087 133.581C141.59 133.852 141.983 134.255 142.265 134.789C142.557 135.323 142.703 135.967 142.703 136.723V141.633H140.996V136.98C140.996 136.234 140.81 135.665 140.437 135.273C140.065 134.87 139.556 134.668 138.911 134.668C138.267 134.668 137.753 134.87 137.371 135.273C136.998 135.665 136.812 136.234 136.812 136.98V141.633H135.089V130.453H136.812V134.275C137.104 133.923 137.471 133.651 137.914 133.46C138.368 133.268 138.861 133.173 139.395 133.173ZM152.529 137.267C152.529 137.579 152.509 137.861 152.469 138.113H146.109C146.159 138.777 146.406 139.311 146.849 139.714C147.292 140.117 147.836 140.318 148.48 140.318C149.407 140.318 150.062 139.931 150.444 139.155H152.303C152.051 139.92 151.592 140.55 150.928 141.043C150.273 141.527 149.457 141.769 148.48 141.769C147.685 141.769 146.97 141.592 146.335 141.24C145.711 140.877 145.217 140.374 144.855 139.729C144.502 139.074 144.326 138.319 144.326 137.463C144.326 136.607 144.497 135.857 144.84 135.212C145.192 134.557 145.681 134.054 146.305 133.701C146.94 133.349 147.665 133.173 148.48 133.173C149.266 133.173 149.966 133.344 150.58 133.686C151.195 134.029 151.673 134.512 152.015 135.137C152.358 135.751 152.529 136.461 152.529 137.267ZM150.731 136.723C150.721 136.088 150.495 135.58 150.052 135.197C149.608 134.814 149.06 134.623 148.405 134.623C147.811 134.623 147.302 134.814 146.879 135.197C146.456 135.57 146.204 136.078 146.124 136.723H150.731ZM157.574 137.463C157.574 136.607 157.745 135.857 158.088 135.212C158.44 134.557 158.924 134.054 159.538 133.701C160.152 133.349 160.857 133.173 161.653 133.173C162.66 133.173 163.491 133.414 164.146 133.898C164.81 134.371 165.259 135.051 165.49 135.937H163.632C163.481 135.524 163.239 135.202 162.907 134.97C162.575 134.739 162.157 134.623 161.653 134.623C160.948 134.623 160.384 134.875 159.961 135.378C159.548 135.872 159.342 136.567 159.342 137.463C159.342 138.359 159.548 139.059 159.961 139.563C160.384 140.066 160.948 140.318 161.653 140.318C162.65 140.318 163.31 139.88 163.632 139.004H165.49C165.248 139.85 164.795 140.525 164.131 141.028C163.466 141.522 162.64 141.769 161.653 141.769C160.857 141.769 160.152 141.592 159.538 141.24C158.924 140.877 158.44 140.374 158.088 139.729C157.745 139.074 157.574 138.319 157.574 137.463ZM166.632 137.433C166.632 136.597 166.804 135.857 167.146 135.212C167.499 134.568 167.972 134.069 168.566 133.717C169.17 133.354 169.835 133.173 170.56 133.173C171.215 133.173 171.784 133.304 172.267 133.565C172.761 133.817 173.154 134.134 173.446 134.517V133.309H175.183V141.633H173.446V140.394C173.154 140.787 172.756 141.114 172.252 141.376C171.749 141.638 171.175 141.769 170.53 141.769C169.815 141.769 169.16 141.587 168.566 141.225C167.972 140.852 167.499 140.338 167.146 139.684C166.804 139.019 166.632 138.269 166.632 137.433ZM173.446 137.463C173.446 136.889 173.325 136.39 173.083 135.967C172.851 135.544 172.544 135.222 172.162 135.001C171.779 134.779 171.366 134.668 170.923 134.668C170.48 134.668 170.067 134.779 169.684 135.001C169.301 135.212 168.989 135.529 168.747 135.952C168.516 136.365 168.4 136.859 168.4 137.433C168.4 138.007 168.516 138.51 168.747 138.944C168.989 139.377 169.301 139.709 169.684 139.941C170.077 140.162 170.49 140.273 170.923 140.273C171.366 140.273 171.779 140.162 172.162 139.941C172.544 139.719 172.851 139.397 173.083 138.974C173.325 138.541 173.446 138.037 173.446 137.463ZM179.167 134.517C179.419 134.094 179.751 133.767 180.164 133.535C180.587 133.294 181.086 133.173 181.66 133.173V134.955H181.222C180.547 134.955 180.033 135.126 179.681 135.469C179.338 135.811 179.167 136.406 179.167 137.252V141.633H177.445V133.309H179.167V134.517Z" fill="white"/>
<rect x="558.958" y="123.688" width="4.72093" height="26.4372" fill="white"/>
<rect x="574.065" y="135.019" width="4.72093" height="26.4372" transform="rotate(90 574.065 135.019)" fill="white"/>
<rect x="1.41628" y="1.41628" width="552.349" height="67.0372" stroke="white" stroke-width="2.83256"/>
<path d="M34.7763 29.1611C35.8942 29.1611 36.8711 29.3777 37.707 29.8107C38.553 30.2337 39.2026 30.8481 39.6558 31.6538C40.1191 32.4494 40.3507 33.381 40.3507 34.4486C40.3507 35.5161 40.1191 36.4427 39.6558 37.2283C39.2026 38.0138 38.553 38.6181 37.707 39.0411C36.8711 39.454 35.8942 39.6605 34.7763 39.6605H31.347V29.1611H34.7763ZM34.7763 38.2555C36.005 38.2555 36.9466 37.9232 37.6013 37.2585C38.2559 36.5938 38.5832 35.6571 38.5832 34.4486C38.5832 33.2299 38.2559 32.2782 37.6013 31.5934C36.9466 30.9085 36.005 30.5661 34.7763 30.5661H33.0692V38.2555H34.7763ZM49.6866 35.2946C49.6866 35.6068 49.6665 35.8888 49.6262 36.1406H43.2661C43.3165 36.8053 43.5632 37.339 44.0064 37.7419C44.4495 38.1447 44.9934 38.3462 45.6379 38.3462C46.5645 38.3462 47.2191 37.9584 47.6018 37.1829H49.46C49.2082 37.9484 48.75 38.5778 48.0853 39.0713C47.4306 39.5547 46.6149 39.7964 45.6379 39.7964C44.8423 39.7964 44.1272 39.6202 43.4927 39.2677C42.8683 38.9051 42.3748 38.4016 42.0123 37.757C41.6598 37.1024 41.4835 36.347 41.4835 35.491C41.4835 34.6349 41.6547 33.8846 41.9972 33.24C42.3497 32.5854 42.8381 32.0818 43.4625 31.7293C44.097 31.3768 44.8222 31.2006 45.6379 31.2006C46.4235 31.2006 47.1235 31.3718 47.7378 31.7142C48.3522 32.0566 48.8305 32.5401 49.173 33.1645C49.5154 33.7788 49.6866 34.4889 49.6866 35.2946ZM47.8889 34.7507C47.8788 34.1162 47.6522 33.6076 47.2091 33.2249C46.7659 32.8422 46.217 32.6508 45.5624 32.6508C44.9682 32.6508 44.4596 32.8422 44.0366 33.2249C43.6136 33.5975 43.3618 34.1061 43.2813 34.7507H47.8889ZM54.4028 39.7964C53.7482 39.7964 53.159 39.6806 52.6353 39.449C52.1217 39.2073 51.7138 38.885 51.4116 38.4821C51.1095 38.0692 50.9484 37.611 50.9282 37.1074H52.7108C52.7411 37.4599 52.9072 37.757 53.2094 37.9987C53.5216 38.2303 53.9093 38.3462 54.3726 38.3462C54.856 38.3462 55.2287 38.2555 55.4905 38.0742C55.7624 37.8829 55.8984 37.6412 55.8984 37.3491C55.8984 37.0369 55.7473 36.8053 55.4452 36.6542C55.1531 36.5031 54.6848 36.3369 54.0403 36.1557C53.4158 35.9844 52.9072 35.8183 52.5144 35.6571C52.1217 35.496 51.7792 35.2492 51.4872 34.9169C51.2052 34.5845 51.0642 34.1464 51.0642 33.6026C51.0642 33.1594 51.1951 32.7566 51.457 32.394C51.7188 32.0214 52.0915 31.7293 52.5749 31.5178C53.0684 31.3063 53.6324 31.2006 54.2669 31.2006C55.2136 31.2006 55.9739 31.4423 56.548 31.9257C57.1321 32.3991 57.4444 33.0487 57.4846 33.8745H55.7624C55.7322 33.5019 55.5812 33.2048 55.3092 32.9832C55.0373 32.7616 54.6697 32.6508 54.2064 32.6508C53.7532 32.6508 53.4058 32.7364 53.164 32.9077C52.9223 33.0789 52.8015 33.3055 52.8015 33.5875C52.8015 33.809 52.882 33.9954 53.0432 34.1464C53.2043 34.2975 53.4007 34.4184 53.6324 34.509C53.864 34.5896 54.2064 34.6953 54.6596 34.8262C55.2639 34.9874 55.7574 35.1536 56.1401 35.3248C56.5329 35.4859 56.8703 35.7276 57.1523 36.0499C57.4343 36.3722 57.5803 36.8002 57.5904 37.334C57.5904 37.8074 57.4595 38.2303 57.1976 38.603C56.9358 38.9756 56.5631 39.2677 56.0797 39.4792C55.6063 39.6907 55.0474 39.7964 54.4028 39.7964ZM60.3275 30.2337C60.0153 30.2337 59.7534 30.128 59.5419 29.9165C59.3304 29.705 59.2247 29.4431 59.2247 29.1309C59.2247 28.8187 59.3304 28.5568 59.5419 28.3454C59.7534 28.1339 60.0153 28.0281 60.3275 28.0281C60.6296 28.0281 60.8864 28.1339 61.0979 28.3454C61.3094 28.5568 61.4152 28.8187 61.4152 29.1309C61.4152 29.4431 61.3094 29.705 61.0979 29.9165C60.8864 30.128 60.6296 30.2337 60.3275 30.2337ZM61.1735 31.3365V39.6605H59.4513V31.3365H61.1735ZM66.7883 31.2006C67.4329 31.2006 68.0019 31.3315 68.4954 31.5934C68.999 31.8451 69.3917 32.1624 69.6737 32.5451V31.3365H71.411V39.7964C71.411 40.5619 71.2499 41.2417 70.9276 41.8359C70.6053 42.4402 70.137 42.9135 69.5227 43.2559C68.9184 43.5984 68.1932 43.7696 67.3473 43.7696C66.2193 43.7696 65.2826 43.5027 64.5374 42.9689C63.7921 42.4452 63.3691 41.7301 63.2684 40.8237H64.9755C65.1064 41.2568 65.3834 41.6042 65.8063 41.8661C66.2394 42.138 66.753 42.274 67.3473 42.274C68.0422 42.274 68.6011 42.0625 69.0241 41.6395C69.4572 41.2165 69.6737 40.6021 69.6737 39.7964V38.4066C69.3817 38.7994 68.9838 39.1317 68.4803 39.4037C67.9868 39.6655 67.4228 39.7964 66.7883 39.7964C66.0632 39.7964 65.3985 39.6152 64.7942 39.2526C64.2 38.8799 63.7266 38.3663 63.3741 37.7117C63.0317 37.047 62.8605 36.2967 62.8605 35.4607C62.8605 34.6248 63.0317 33.8846 63.3741 33.24C63.7266 32.5954 64.2 32.0969 64.7942 31.7444C65.3985 31.3819 66.0632 31.2006 66.7883 31.2006ZM69.6737 35.491C69.6737 34.9169 69.5529 34.4184 69.3112 33.9954C69.0795 33.5724 68.7723 33.2501 68.3896 33.0285C68.0069 32.8069 67.594 32.6962 67.1509 32.6962C66.7077 32.6962 66.2948 32.8069 65.9121 33.0285C65.5294 33.24 65.2172 33.5573 64.9755 33.9803C64.7438 34.3932 64.628 34.8867 64.628 35.4607C64.628 36.0348 64.7438 36.5384 64.9755 36.9714C65.2172 37.4045 65.5294 37.7369 65.9121 37.9685C66.3049 38.1901 66.7178 38.3008 67.1509 38.3008C67.594 38.3008 68.0069 38.1901 68.3896 37.9685C68.7723 37.7469 69.0795 37.4246 69.3112 37.0016C69.5529 36.5686 69.6737 36.065 69.6737 35.491ZM77.8728 31.2006C78.5274 31.2006 79.1116 31.3365 79.6252 31.6085C80.1489 31.8804 80.5568 32.2832 80.8489 32.817C81.1409 33.3508 81.287 33.9954 81.287 34.7507V39.6605H79.5799V35.0075C79.5799 34.2622 79.3936 33.6932 79.0209 33.3004C78.6483 32.8976 78.1397 32.6962 77.4951 32.6962C76.8506 32.6962 76.3369 32.8976 75.9542 33.3004C75.5816 33.6932 75.3953 34.2622 75.3953 35.0075V39.6605H73.6731V31.3365H75.3953V32.2883C75.6773 31.9458 76.0348 31.679 76.4679 31.4876C76.911 31.2962 77.3793 31.2006 77.8728 31.2006ZM86.834 35.4607C86.834 34.6248 87.0052 33.8846 87.3476 33.24C87.7001 32.5954 88.1734 32.0969 88.7677 31.7444C89.3719 31.3819 90.0366 31.2006 90.7618 31.2006C91.4164 31.2006 91.9854 31.3315 92.4689 31.5934C92.9624 31.8451 93.3551 32.1624 93.6472 32.5451V31.3365H95.3845V39.6605H93.6472V38.4217C93.3551 38.8145 92.9573 39.1418 92.4538 39.4037C91.9502 39.6655 91.3761 39.7964 90.7316 39.7964C90.0165 39.7964 89.3619 39.6152 88.7677 39.2526C88.1734 38.8799 87.7001 38.3663 87.3476 37.7117C87.0052 37.047 86.834 36.2967 86.834 35.4607ZM93.6472 35.491C93.6472 34.9169 93.5263 34.4184 93.2846 33.9954C93.053 33.5724 92.7458 33.2501 92.3631 33.0285C91.9804 32.8069 91.5675 32.6962 91.1243 32.6962C90.6812 32.6962 90.2683 32.8069 89.8856 33.0285C89.5029 33.24 89.1906 33.5573 88.9489 33.9803C88.7173 34.3932 88.6015 34.8867 88.6015 35.4607C88.6015 36.0348 88.7173 36.5384 88.9489 36.9714C89.1906 37.4045 89.5029 37.7369 89.8856 37.9685C90.2783 38.1901 90.6913 38.3008 91.1243 38.3008C91.5675 38.3008 91.9804 38.1901 92.3631 37.9685C92.7458 37.7469 93.053 37.4246 93.2846 37.0016C93.5263 36.5686 93.6472 36.065 93.6472 35.491ZM112.75 31.3365L110.167 39.6605H108.354L106.677 33.5119L105 39.6605H103.187L100.589 31.3365H102.341L104.079 38.0289L105.846 31.3365H107.644L109.336 37.9987L111.058 31.3365H112.75ZM121.666 35.2946C121.666 35.6068 121.646 35.8888 121.606 36.1406H115.246C115.296 36.8053 115.543 37.339 115.986 37.7419C116.429 38.1447 116.973 38.3462 117.617 38.3462C118.544 38.3462 119.199 37.9584 119.581 37.1829H121.439C121.188 37.9484 120.729 38.5778 120.065 39.0713C119.41 39.5547 118.594 39.7964 117.617 39.7964C116.822 39.7964 116.107 39.6202 115.472 39.2677C114.848 38.9051 114.354 38.4016 113.992 37.757C113.639 37.1024 113.463 36.347 113.463 35.491C113.463 34.6349 113.634 33.8846 113.977 33.24C114.329 32.5854 114.818 32.0818 115.442 31.7293C116.076 31.3768 116.802 31.2006 117.617 31.2006C118.403 31.2006 119.103 31.3718 119.717 31.7142C120.332 32.0566 120.81 32.5401 121.152 33.1645C121.495 33.7788 121.666 34.4889 121.666 35.2946ZM119.868 34.7507C119.858 34.1162 119.632 33.6076 119.188 33.2249C118.745 32.8422 118.196 32.6508 117.542 32.6508C116.948 32.6508 116.439 32.8422 116.016 33.2249C115.593 33.5975 115.341 34.1061 115.261 34.7507H119.868ZM125.083 32.5753C125.375 32.1725 125.773 31.8451 126.277 31.5934C126.79 31.3315 127.359 31.2006 127.984 31.2006C128.719 31.2006 129.384 31.3768 129.978 31.7293C130.572 32.0818 131.04 32.5854 131.383 33.24C131.725 33.8846 131.896 34.6248 131.896 35.4607C131.896 36.2967 131.725 37.047 131.383 37.7117C131.04 38.3663 130.567 38.8799 129.963 39.2526C129.368 39.6152 128.709 39.7964 127.984 39.7964C127.339 39.7964 126.765 39.6705 126.261 39.4188C125.768 39.167 125.375 38.8447 125.083 38.4519V39.6605H123.361V28.4813H125.083V32.5753ZM130.144 35.4607C130.144 34.8867 130.023 34.3932 129.781 33.9803C129.55 33.5573 129.237 33.24 128.845 33.0285C128.462 32.8069 128.049 32.6962 127.606 32.6962C127.173 32.6962 126.76 32.8069 126.367 33.0285C125.984 33.2501 125.672 33.5724 125.431 33.9954C125.199 34.4184 125.083 34.9169 125.083 35.491C125.083 36.065 125.199 36.5686 125.431 37.0016C125.672 37.4246 125.984 37.7469 126.367 37.9685C126.76 38.1901 127.173 38.3008 127.606 38.3008C128.049 38.3008 128.462 38.1901 128.845 37.9685C129.237 37.7369 129.55 37.4045 129.781 36.9714C130.023 36.5384 130.144 36.0348 130.144 35.4607ZM136.621 39.7964C135.966 39.7964 135.377 39.6806 134.853 39.449C134.34 39.2073 133.932 38.885 133.63 38.4821C133.327 38.0692 133.166 37.611 133.146 37.1074H134.929C134.959 37.4599 135.125 37.757 135.427 37.9987C135.74 38.2303 136.127 38.3462 136.591 38.3462C137.074 38.3462 137.447 38.2555 137.708 38.0742C137.98 37.8829 138.116 37.6412 138.116 37.3491C138.116 37.0369 137.965 36.8053 137.663 36.6542C137.371 36.5031 136.903 36.3369 136.258 36.1557C135.634 35.9844 135.125 35.8183 134.732 35.6571C134.34 35.496 133.997 35.2492 133.705 34.9169C133.423 34.5845 133.282 34.1464 133.282 33.6026C133.282 33.1594 133.413 32.7566 133.675 32.394C133.937 32.0214 134.309 31.7293 134.793 31.5178C135.286 31.3063 135.85 31.2006 136.485 31.2006C137.432 31.2006 138.192 31.4423 138.766 31.9257C139.35 32.3991 139.662 33.0487 139.703 33.8745H137.98C137.95 33.5019 137.799 33.2048 137.527 32.9832C137.255 32.7616 136.888 32.6508 136.424 32.6508C135.971 32.6508 135.624 32.7364 135.382 32.9077C135.14 33.0789 135.019 33.3055 135.019 33.5875C135.019 33.809 135.1 33.9954 135.261 34.1464C135.422 34.2975 135.619 34.4184 135.85 34.509C136.082 34.5896 136.424 34.6953 136.878 34.8262C137.482 34.9874 137.975 35.1536 138.358 35.3248C138.751 35.4859 139.088 35.7276 139.37 36.0499C139.652 36.3722 139.798 36.8002 139.808 37.334C139.808 37.8074 139.677 38.2303 139.416 38.603C139.154 38.9756 138.781 39.2677 138.298 39.4792C137.824 39.6907 137.265 39.7964 136.621 39.7964ZM142.545 30.2337C142.233 30.2337 141.971 30.128 141.76 29.9165C141.548 29.705 141.443 29.4431 141.443 29.1309C141.443 28.8187 141.548 28.5568 141.76 28.3454C141.971 28.1339 142.233 28.0281 142.545 28.0281C142.848 28.0281 143.104 28.1339 143.316 28.3454C143.527 28.5568 143.633 28.8187 143.633 29.1309C143.633 29.4431 143.527 29.705 143.316 29.9165C143.104 30.128 142.848 30.2337 142.545 30.2337ZM143.391 31.3365V39.6605H141.669V31.3365H143.391ZM147.662 32.7415V37.3491C147.662 37.6613 147.732 37.8879 147.873 38.0289C148.024 38.1599 148.276 38.2253 148.629 38.2253H149.686V39.6605H148.326C147.551 39.6605 146.957 39.4792 146.544 39.1166C146.131 38.7541 145.924 38.1649 145.924 37.3491V32.7415H144.942V31.3365H145.924V29.2669H147.662V31.3365H149.686V32.7415H147.662ZM158.902 35.2946C158.902 35.6068 158.882 35.8888 158.842 36.1406H152.482C152.532 36.8053 152.779 37.339 153.222 37.7419C153.665 38.1447 154.209 38.3462 154.854 38.3462C155.78 38.3462 156.435 37.9584 156.818 37.1829H158.676C158.424 37.9484 157.966 38.5778 157.301 39.0713C156.646 39.5547 155.831 39.7964 154.854 39.7964C154.058 39.7964 153.343 39.6202 152.709 39.2677C152.084 38.9051 151.591 38.4016 151.228 37.757C150.876 37.1024 150.699 36.347 150.699 35.491C150.699 34.6349 150.87 33.8846 151.213 33.24C151.565 32.5854 152.054 32.0818 152.678 31.7293C153.313 31.3768 154.038 31.2006 154.854 31.2006C155.639 31.2006 156.339 31.3718 156.954 31.7142C157.568 32.0566 158.046 32.5401 158.389 33.1645C158.731 33.7788 158.902 34.4889 158.902 35.2946ZM157.105 34.7507C157.095 34.1162 156.868 33.6076 156.425 33.2249C155.982 32.8422 155.433 32.6508 154.778 32.6508C154.184 32.6508 153.675 32.8422 153.252 33.2249C152.829 33.5975 152.578 34.1061 152.497 34.7507H157.105Z" fill="white"/>
<rect x="485.312" y="1.52588e-05" width="69.8698" height="69.8698" fill="white"/>
<rect x="519.302" y="25.493" width="2.83256" height="19.8279" fill="black"/>
<rect x="530.633" y="33.9907" width="2.83256" height="19.8279" transform="rotate(90 530.633 33.9907)" fill="black"/>
<rect y="245.488" width="555.181" height="1.88837" fill="#D9D9D9"/>
<rect x="519.302" y="206" width="2.83256" height="19.8279" fill="white"/>
<rect x="530.633" y="214.498" width="2.83256" height="19.8279" transform="rotate(90 530.633 214.498)" fill="white"/>
<path d="M32.8577 214.169C31.8505 213.645 31.347 212.834 31.347 211.736C31.347 211.193 31.4829 210.699 31.7549 210.256C32.0369 209.803 32.4548 209.445 33.0087 209.183C33.5727 208.911 34.2576 208.776 35.0633 208.776C35.869 208.776 36.5488 208.911 37.1027 209.183C37.6667 209.445 38.0847 209.803 38.3566 210.256C38.6386 210.699 38.7796 211.193 38.7796 211.736C38.7796 212.29 38.6436 212.779 38.3717 213.202C38.0998 213.615 37.7372 213.937 37.284 214.169C37.8379 214.41 38.271 214.763 38.5832 215.226C38.8954 215.689 39.0515 216.238 39.0515 216.873C39.0515 217.558 38.8753 218.157 38.5228 218.671C38.1804 219.174 37.707 219.562 37.1027 219.834C36.4985 220.106 35.8186 220.242 35.0633 220.242C34.3079 220.242 33.6281 220.106 33.0239 219.834C32.4296 219.562 31.9563 219.174 31.6038 218.671C31.2614 218.157 31.0902 217.558 31.0902 216.873C31.0902 216.238 31.2463 215.689 31.5585 215.226C31.8707 214.753 32.3038 214.4 32.8577 214.169ZM36.7251 212.039C36.7251 211.545 36.574 211.162 36.2719 210.89C35.9798 210.619 35.5769 210.483 35.0633 210.483C34.5597 210.483 34.1569 210.619 33.8547 210.89C33.5627 211.162 33.4166 211.55 33.4166 212.054C33.4166 212.507 33.5677 212.87 33.8698 213.141C34.1821 213.413 34.5799 213.549 35.0633 213.549C35.5467 213.549 35.9445 213.413 36.2567 213.141C36.569 212.859 36.7251 212.492 36.7251 212.039ZM35.0633 215.09C34.4892 215.09 34.0209 215.236 33.6583 215.528C33.3058 215.82 33.1296 216.238 33.1296 216.782C33.1296 217.286 33.3008 217.699 33.6432 218.021C33.9957 218.333 34.4691 218.489 35.0633 218.489C35.6575 218.489 36.1258 218.328 36.4682 218.006C36.8107 217.684 36.9819 217.276 36.9819 216.782C36.9819 216.248 36.8056 215.836 36.4531 215.543C36.1006 215.241 35.6374 215.09 35.0633 215.09ZM48.6532 212.718C48.6532 213.282 48.5172 213.811 48.2453 214.305C47.9835 214.798 47.5655 215.196 46.9914 215.498C46.4274 215.8 45.7124 215.951 44.8462 215.951H43.0787V220H40.9637V209.455H44.8462C45.662 209.455 46.3569 209.596 46.931 209.878C47.5051 210.16 47.9331 210.548 48.2151 211.042C48.5072 211.535 48.6532 212.094 48.6532 212.718ZM44.7556 214.244C45.3397 214.244 45.7728 214.113 46.0548 213.851C46.3368 213.58 46.4778 213.202 46.4778 212.718C46.4778 211.691 45.9037 211.178 44.7556 211.178H43.0787V214.244H44.7556ZM61.6512 209.455V220H59.5362V213.141L56.7112 220H55.1099L52.2698 213.141V220H50.1548V209.455H52.5568L55.9106 217.296L59.2643 209.455H61.6512ZM71.028 209.455C72.1359 209.455 73.1078 209.672 73.9437 210.105C74.7897 210.538 75.4393 211.157 75.8925 211.963C76.3558 212.759 76.5874 213.685 76.5874 214.743C76.5874 215.8 76.3558 216.727 75.8925 217.522C75.4393 218.308 74.7897 218.917 73.9437 219.35C73.1078 219.783 72.1359 220 71.028 220H67.3419V209.455H71.028ZM70.9525 218.202C72.0604 218.202 72.9164 217.9 73.5207 217.296C74.125 216.692 74.4271 215.841 74.4271 214.743C74.4271 213.645 74.125 212.789 73.5207 212.175C72.9164 211.55 72.0604 211.238 70.9525 211.238H69.4569V218.202H70.9525ZM79.2432 210.634C78.8705 210.634 78.5583 210.518 78.3065 210.286C78.0648 210.045 77.944 209.747 77.944 209.395C77.944 209.042 78.0648 208.75 78.3065 208.519C78.5583 208.277 78.8705 208.156 79.2432 208.156C79.6158 208.156 79.923 208.277 80.1647 208.519C80.4165 208.75 80.5424 209.042 80.5424 209.395C80.5424 209.747 80.4165 210.045 80.1647 210.286C79.923 210.518 79.6158 210.634 79.2432 210.634ZM80.2856 211.631V220H78.1706V211.631H80.2856ZM87.013 211.51C88.0101 211.51 88.8158 211.827 89.4301 212.462C90.0445 213.086 90.3516 213.962 90.3516 215.09V220H88.2367V215.377C88.2367 214.713 88.0705 214.204 87.7381 213.851C87.4058 213.489 86.9526 213.308 86.3785 213.308C85.7944 213.308 85.3311 213.489 84.9887 213.851C84.6563 214.204 84.4901 214.713 84.4901 215.377V220H82.3752V211.631H84.4901V212.673C84.7721 212.311 85.1297 212.029 85.5627 211.827C86.0059 211.616 86.4893 211.51 87.013 211.51ZM97.0007 211.51C97.9978 211.51 98.8035 211.827 99.4178 212.462C100.032 213.086 100.339 213.962 100.339 215.09V220H98.2244V215.377C98.2244 214.713 98.0582 214.204 97.7259 213.851C97.3935 213.489 96.9403 213.308 96.3662 213.308C95.7821 213.308 95.3188 213.489 94.9764 213.851C94.644 214.204 94.4779 214.713 94.4779 215.377V220H92.3629V211.631H94.4779V212.673C94.7598 212.311 95.1174 212.029 95.5504 211.827C95.9936 211.616 96.477 211.51 97.0007 211.51ZM110.131 215.634C110.131 215.936 110.111 216.208 110.07 216.45H103.952C104.002 217.054 104.214 217.527 104.586 217.87C104.959 218.212 105.417 218.384 105.961 218.384C106.747 218.384 107.306 218.046 107.638 217.371H109.919C109.677 218.177 109.214 218.842 108.529 219.366C107.844 219.879 107.004 220.136 106.006 220.136C105.201 220.136 104.476 219.96 103.831 219.607C103.197 219.245 102.698 218.736 102.335 218.081C101.983 217.427 101.807 216.671 101.807 215.815C101.807 214.949 101.983 214.189 102.335 213.534C102.688 212.88 103.181 212.376 103.816 212.024C104.45 211.671 105.181 211.495 106.006 211.495C106.802 211.495 107.512 211.666 108.137 212.008C108.771 212.351 109.26 212.839 109.602 213.474C109.954 214.098 110.131 214.818 110.131 215.634ZM107.94 215.03C107.93 214.486 107.734 214.053 107.351 213.731C106.968 213.398 106.5 213.232 105.946 213.232C105.422 213.232 104.979 213.393 104.617 213.715C104.264 214.028 104.048 214.466 103.967 215.03H107.94ZM113.789 212.93C114.061 212.487 114.414 212.139 114.847 211.888C115.29 211.636 115.794 211.51 116.358 211.51V213.731H115.799C115.134 213.731 114.63 213.887 114.288 214.199C113.956 214.511 113.789 215.055 113.789 215.83V220H111.674V211.631H113.789V212.93Z" fill="white"/>
<path d="M437.704 209.848C438.92 209.848 439.971 210.077 440.856 210.536C441.752 210.984 442.435 211.629 442.904 212.472C443.384 213.315 443.624 214.307 443.624 215.448C443.624 216.589 443.384 217.581 442.904 218.424C442.435 219.256 441.752 219.896 440.856 220.344C439.971 220.781 438.92 221 437.704 221H434.232V209.848H437.704ZM437.704 219.8C439.144 219.8 440.243 219.421 441 218.664C441.757 217.896 442.136 216.824 442.136 215.448C442.136 214.061 441.752 212.979 440.984 212.2C440.227 211.421 439.133 211.032 437.704 211.032H435.688V219.8H437.704ZM453.545 216.28C453.545 216.557 453.529 216.851 453.497 217.16H446.489C446.542 218.024 446.835 218.701 447.369 219.192C447.913 219.672 448.569 219.912 449.337 219.912C449.966 219.912 450.489 219.768 450.905 219.48C451.331 219.181 451.63 218.787 451.801 218.296H453.369C453.134 219.139 452.665 219.827 451.961 220.36C451.257 220.883 450.382 221.144 449.337 221.144C448.505 221.144 447.758 220.957 447.097 220.584C446.446 220.211 445.934 219.683 445.561 219C445.187 218.307 445.001 217.507 445.001 216.6C445.001 215.693 445.182 214.899 445.545 214.216C445.907 213.533 446.414 213.011 447.065 212.648C447.726 212.275 448.483 212.088 449.337 212.088C450.169 212.088 450.905 212.269 451.545 212.632C452.185 212.995 452.675 213.496 453.017 214.136C453.369 214.765 453.545 215.48 453.545 216.28ZM452.041 215.976C452.041 215.421 451.918 214.947 451.673 214.552C451.427 214.147 451.091 213.843 450.665 213.64C450.249 213.427 449.785 213.32 449.273 213.32C448.537 213.32 447.907 213.555 447.385 214.024C446.873 214.493 446.579 215.144 446.505 215.976H452.041ZM457.242 213.432V218.6C457.242 219.027 457.333 219.331 457.514 219.512C457.696 219.683 458.01 219.768 458.458 219.768H459.53V221H458.218C457.408 221 456.8 220.813 456.394 220.44C455.989 220.067 455.786 219.453 455.786 218.6V213.432H454.65V212.232H455.786V210.024H457.242V212.232H459.53V213.432H457.242ZM460.751 216.584C460.751 215.688 460.932 214.904 461.295 214.232C461.657 213.549 462.153 213.021 462.783 212.648C463.423 212.275 464.132 212.088 464.911 212.088C465.679 212.088 466.345 212.253 466.911 212.584C467.476 212.915 467.897 213.331 468.175 213.832V212.232H469.647V221H468.175V219.368C467.887 219.88 467.455 220.307 466.879 220.648C466.313 220.979 465.652 221.144 464.895 221.144C464.116 221.144 463.412 220.952 462.783 220.568C462.153 220.184 461.657 219.645 461.295 218.952C460.932 218.259 460.751 217.469 460.751 216.584ZM468.175 216.6C468.175 215.939 468.041 215.363 467.775 214.872C467.508 214.381 467.145 214.008 466.687 213.752C466.239 213.485 465.743 213.352 465.199 213.352C464.655 213.352 464.159 213.48 463.711 213.736C463.263 213.992 462.905 214.365 462.639 214.856C462.372 215.347 462.239 215.923 462.239 216.584C462.239 217.256 462.372 217.843 462.639 218.344C462.905 218.835 463.263 219.213 463.711 219.48C464.159 219.736 464.655 219.864 465.199 219.864C465.743 219.864 466.239 219.736 466.687 219.48C467.145 219.213 467.508 218.835 467.775 218.344C468.041 217.843 468.175 217.261 468.175 216.6ZM472.859 210.808C472.582 210.808 472.347 210.712 472.155 210.52C471.963 210.328 471.867 210.093 471.867 209.816C471.867 209.539 471.963 209.304 472.155 209.112C472.347 208.92 472.582 208.824 472.859 208.824C473.126 208.824 473.35 208.92 473.531 209.112C473.723 209.304 473.819 209.539 473.819 209.816C473.819 210.093 473.723 210.328 473.531 210.52C473.35 210.712 473.126 210.808 472.859 210.808ZM473.563 212.232V221H472.107V212.232H473.563ZM477.501 209.16V221H476.045V209.16H477.501ZM483.086 221.144C482.414 221.144 481.811 221.032 481.278 220.808C480.745 220.573 480.323 220.253 480.014 219.848C479.705 219.432 479.534 218.957 479.502 218.424H481.006C481.049 218.861 481.251 219.219 481.614 219.496C481.987 219.773 482.473 219.912 483.07 219.912C483.625 219.912 484.062 219.789 484.382 219.544C484.702 219.299 484.862 218.989 484.862 218.616C484.862 218.232 484.691 217.949 484.35 217.768C484.009 217.576 483.481 217.389 482.766 217.208C482.115 217.037 481.582 216.867 481.166 216.696C480.761 216.515 480.409 216.253 480.11 215.912C479.822 215.56 479.678 215.101 479.678 214.536C479.678 214.088 479.811 213.677 480.078 213.304C480.345 212.931 480.723 212.637 481.214 212.424C481.705 212.2 482.265 212.088 482.894 212.088C483.865 212.088 484.649 212.333 485.246 212.824C485.843 213.315 486.163 213.987 486.206 214.84H484.75C484.718 214.381 484.531 214.013 484.19 213.736C483.859 213.459 483.411 213.32 482.846 213.32C482.323 213.32 481.907 213.432 481.598 213.656C481.289 213.88 481.134 214.173 481.134 214.536C481.134 214.824 481.225 215.064 481.406 215.256C481.598 215.437 481.833 215.587 482.11 215.704C482.398 215.811 482.793 215.933 483.294 216.072C483.923 216.243 484.435 216.413 484.83 216.584C485.225 216.744 485.561 216.989 485.838 217.32C486.126 217.651 486.275 218.083 486.286 218.616C486.286 219.096 486.153 219.528 485.886 219.912C485.619 220.296 485.241 220.6 484.75 220.824C484.27 221.037 483.715 221.144 483.086 221.144Z" fill="white"/>
<rect y="321.233" width="555.181" height="1.88837" fill="#D9D9D9"/>
<rect x="519.302" y="282.521" width="2.83256" height="19.8279" fill="white"/>
<rect x="530.633" y="291.019" width="2.83256" height="19.8279" transform="rotate(90 530.633 291.019)" fill="white"/>
<path d="M45.3511 286.144L42.4053 296.688H39.9126L37.9336 289.18L35.864 296.688L33.3864 296.703L30.5463 286.144H32.8124L34.6705 294.332L36.8157 286.144H39.1724L41.1967 294.286L43.07 286.144H45.3511ZM50.4485 296.824C49.6427 296.824 48.9176 296.648 48.273 296.296C47.6285 295.933 47.1199 295.424 46.7472 294.77C46.3847 294.115 46.2034 293.36 46.2034 292.504C46.2034 291.648 46.3897 290.892 46.7623 290.238C47.1451 289.583 47.6637 289.079 48.3184 288.727C48.973 288.364 49.7032 288.183 50.5089 288.183C51.3146 288.183 52.0448 288.364 52.6994 288.727C53.354 289.079 53.8677 289.583 54.2403 290.238C54.623 290.892 54.8144 291.648 54.8144 292.504C54.8144 293.36 54.618 294.115 54.2252 294.77C53.8425 295.424 53.3188 295.933 52.6541 296.296C51.9994 296.648 51.2642 296.824 50.4485 296.824ZM50.4485 294.981C50.8312 294.981 51.1887 294.891 51.521 294.709C51.8635 294.518 52.1354 294.236 52.3368 293.863C52.5382 293.491 52.639 293.038 52.639 292.504C52.639 291.708 52.4275 291.099 52.0045 290.676C51.5915 290.243 51.0829 290.026 50.4787 290.026C49.8744 290.026 49.3658 290.243 48.9529 290.676C48.55 291.099 48.3486 291.708 48.3486 292.504C48.3486 293.299 48.545 293.914 48.9378 294.347C49.3406 294.77 49.8442 294.981 50.4485 294.981ZM58.4808 289.618C58.7527 289.175 59.1052 288.828 59.5382 288.576C59.9814 288.324 60.485 288.198 61.0489 288.198V290.419H60.49C59.8253 290.419 59.3217 290.575 58.9793 290.887C58.6469 291.2 58.4808 291.743 58.4808 292.519V296.688H56.3658V288.319H58.4808V289.618ZM67.4286 296.688L64.5885 293.123V296.688H62.4735V285.509H64.5885V291.869L67.3984 288.319H70.1478L66.4617 292.519L70.178 296.688H67.4286ZM81.044 286.144V293.546C81.044 294.573 80.7469 295.374 80.1527 295.948C79.5585 296.512 78.7628 296.794 77.7658 296.794C76.7586 296.794 75.9429 296.502 75.3184 295.918C74.7041 295.334 74.3969 294.518 74.3969 293.471H76.5119C76.522 293.924 76.6277 294.276 76.8291 294.528C77.0406 294.78 77.3428 294.906 77.7355 294.906C78.1183 294.906 78.4103 294.785 78.6118 294.543C78.8132 294.301 78.9139 293.969 78.9139 293.546V286.144H81.044ZM87.1519 296.794C86.4167 296.794 85.752 296.668 85.1578 296.416C84.5737 296.165 84.1104 295.802 83.7679 295.329C83.4255 294.855 83.2493 294.296 83.2392 293.652H85.5053C85.5355 294.085 85.6865 294.427 85.9585 294.679C86.2405 294.931 86.6232 295.057 87.1066 295.057C87.6001 295.057 87.9878 294.941 88.2698 294.709C88.5518 294.468 88.6928 294.155 88.6928 293.773C88.6928 293.461 88.5971 293.204 88.4058 293.002C88.2144 292.801 87.9727 292.645 87.6807 292.534C87.3987 292.413 87.0059 292.282 86.5023 292.141C85.8175 291.94 85.2585 291.743 84.8254 291.552C84.4024 291.351 84.0348 291.053 83.7226 290.661C83.4205 290.258 83.2694 289.724 83.2694 289.059C83.2694 288.435 83.4255 287.891 83.7377 287.428C84.0499 286.965 84.488 286.612 85.052 286.37C85.616 286.119 86.2606 285.993 86.9857 285.993C88.0734 285.993 88.9547 286.26 89.6295 286.793C90.3143 287.317 90.692 288.052 90.7625 288.999H88.436C88.4159 288.636 88.2598 288.339 87.9677 288.108C87.6857 287.866 87.308 287.745 86.8347 287.745C86.4217 287.745 86.0894 287.851 85.8376 288.062C85.5959 288.274 85.475 288.581 85.475 288.984C85.475 289.266 85.5657 289.502 85.747 289.694C85.9383 289.875 86.17 290.026 86.4419 290.147C86.7239 290.258 87.1167 290.389 87.6202 290.54C88.3051 290.741 88.864 290.943 89.2971 291.144C89.7302 291.346 90.1028 291.648 90.415 292.051C90.7272 292.453 90.8833 292.982 90.8833 293.637C90.8833 294.201 90.7373 294.724 90.4452 295.208C90.1532 295.691 89.7251 296.079 89.1611 296.371C88.5971 296.653 87.9274 296.794 87.1519 296.794Z" fill="white"/>
</svg>
