<svg width="297" height="49" viewBox="0 0 297 49" fill="none" xmlns="http://www.w3.org/2000/svg">
<path opacity="0.2" fill-rule="evenodd" clip-rule="evenodd" d="M106.494 14.419L110.339 11.3136L113.844 14.4316L112.289 15.8302L112.286 25.7026L115.565 28.1537L116.543 27.5184L116.597 16.2474L114.867 14.5644L118.824 11.1572L121.926 14.1393L123.549 12.8307L123.924 13.2164L122.005 14.7335L120.75 16.0025L120.682 25.5619L112.631 29.9568L108.128 27.5121L103.755 29.8494L100.049 27.3177L98.6588 28.4935L98.3238 28.0431L99.7666 26.8294C99.7666 26.8294 99.7018 20.9395 99.7729 18.0522C99.893 13.1421 96.6581 17.0408 96.4764 11.4669C96.3721 8.16402 101.812 7.04514 100.557 7.56981C99.2988 8.09764 99.4995 11.4669 101.477 11.3911C102.619 11.3436 104.19 14.2199 104.19 14.2199L104.122 25.4513L106.488 27.9514L107.784 26.8404L107.771 15.5711L106.494 14.419V14.419ZM162.522 16.1336L162.544 26.9795L158.574 23.6703L158.62 12.5921L158.193 12.2144C156.181 13.2495 154.106 14.302 153.925 14.3416L153.882 25.3913L152.483 26.586L152.795 26.91L154.347 25.7089L158.998 28.8411L167.204 24.884L167.192 14.577L168.639 13.6383L168.296 13.2053L166.936 14.0618L162.117 10.1821C162.117 10.1821 160.018 11.2773 158.192 12.2144L162.522 16.1336V16.1336ZM169.112 14.2546L169.358 14.6023L170.34 13.9307C171.975 12.8861 172.089 15.3656 172.089 15.3656L172.027 25.0799C170.777 25.7342 170.191 27.1786 170.191 27.1786C170.191 27.1786 170.812 26.379 171.936 26.6935C173.222 27.0522 175.18 28.8332 175.18 28.8332L179.912 25.9017C179.912 25.9017 178.606 26.951 176.776 24.8113L176.825 13.7094C176.825 13.7094 178.768 15.6011 180.692 15.2202C183.118 14.7398 183.63 10.4081 183.63 10.4081C183.63 10.4081 183.877 11.3531 181.649 10.9912C180.166 10.7573 179.874 10.2279 179.874 10.2279L176.599 13.1152L174.053 10.0778L169.112 14.2546V14.2546ZM189.868 0L184.503 3.52731L183.657 4.19896C183.657 4.19896 185.61 4.7742 185.212 6.74172C185.147 7.05147 185.141 25.2064 185.141 25.2064L182.993 26.8515L184.179 26.5496L187.453 29.4448L192.181 25.6109L190.996 25.9128L189.805 24.7338L189.868 0V0ZM189.664 18.1992L192.463 22.7173L197.207 29.4021L202.006 25.2996L201.695 24.9377L200.559 25.9286L192.938 15.0037C192.938 15.0037 192.63 14.2262 193.123 14.016C193.571 13.8248 197.25 15.6643 199.024 14.0982C200.793 12.5336 200.728 9.94031 200.728 9.94031C200.728 9.94031 199.882 11.1809 198.771 11.1872C197.66 11.1935 195.472 10.1505 195.472 10.1505L189.664 18.1992ZM240.115 14.7319L240.244 14.95C242.773 13.1437 243.926 16.2933 243.926 16.2933L243.893 25.5098C241.896 26.5528 242.708 26.2383 242.708 26.2383L245.982 29.6392L249.982 26.5465C249.982 26.5465 248.315 25.9381 248.415 25.4845L248.408 15.1301C248.464 15.0448 249.383 13.0235 250.945 15.3609C251.559 16.2885 251.855 16.9712 251.855 16.9712L251.774 25.6662L250.932 26.3758L254.061 29.7435L257.701 26.4627C257.701 26.4627 258.371 26.6603 256.476 25.7057L256.498 14.8804C258.772 12.7407 260.122 16.878 260.122 16.878L260.128 25.78L259.298 26.2557L262.925 29.7277L267.429 25.9428L267.13 25.6773C267.13 25.6773 266.004 26.4027 265.563 25.9586C265.228 25.6108 264.909 25.2486 264.607 24.8729L264.638 14.7698L266.076 13.6415L265.966 13.1847L264.419 14.3305L260.94 10.9723C260.94 10.9723 255.823 14.6766 256.304 14.3732L252.77 10.7937L248.042 14.2025L244.65 11.1746L240.115 14.7319V14.7319ZM38.4543 15.3688L34.995 11.8541L30.0801 15.1459L30.1244 1.79842L24.8476 6.27709L24.0717 6.87289C24.0717 6.87289 25.7721 6.64058 25.4861 8.12451C25.4245 8.439 25.415 26.6713 25.415 26.6713L23.2847 28.4302L23.6418 28.8L24.8255 27.9261L27.6891 29.5428L32.6798 27.0332L32.4127 26.7282L31.5404 27.3888L30.0485 26.1166L30.0801 16.0641L31.9655 14.773L34.0025 17.3726L33.8271 29.6487C33.6422 31.76 31.8659 32.9674 30.1623 33.9693C39.1702 34.2032 38.6187 27.8487 38.6187 27.8487L38.6835 15.8982L40.1516 14.7793L39.7739 14.2689L38.4543 15.3688ZM234.509 3.60633L231.29 6.6706L233.858 9.68273L237.543 6.57736L234.509 3.60633V3.60633ZM233.275 26.3647L231.404 27.825L231.818 28.2264L233.12 27.3682L236.701 29.6834L241.044 26.5323C241.044 26.5323 239.745 27.3509 237.867 25.2601L237.923 14.9136L239.707 13.7063L239.392 13.2701L237.858 14.3336L234.312 11.1635C234.312 11.1635 229.324 14.9579 229.879 14.8552C231.157 14.6165 232.69 14.0476 233.24 15.7212L233.275 26.3647V26.3647ZM7.5319 24.3593L7.18107 24.0606C7.18107 24.0606 5.58651 21.8576 5.18985 18.9198C4.81215 16.091 5.53436 14.1519 5.53436 14.1519L5.65763 13.4597C7.28379 10.5535 10.2627 8.53855 10.2627 8.53855C10.2627 8.53855 8.23515 8.36788 4.34911 12.0453C-5.28304 21.1765 5.65447 35.7108 16.7674 30.6648C22.4313 28.0905 22.5293 21.2223 22.5293 21.2223C22.5293 21.2223 19.8364 24.4952 17.9526 25.8812L17.9827 18.7586L20.7751 16.7373L18.0079 14.5249L17.9748 9.44251L20.5713 8.69344C27.3983 2.72767 18.6006 0.897638 18.7112 0.952949C22.0568 2.61704 19.13 4.308 17.2383 3.96665C12.9446 3.19228 7.6046 -0.935555 3.1923 3.52731C-0.805948 7.57297 3.72962 10.1742 3.72962 10.1742C2.50644 2.21089 16.3786 10.4192 17.5797 9.32872L17.5291 14.4964L15.3988 16.6615L17.518 18.6875L17.5086 26.1293C17.0139 26.4564 16.6726 26.7029 16.3028 26.8151C13.6478 27.5848 10.9296 27.4109 7.60302 24.4794L7.5319 24.3593V24.3593ZM7.60302 24.4794L14.0618 21.1812L14.1266 9.83285L5.65763 13.4566L5.33366 12.7407L4.83269 14.547L5.53436 14.1487L9.07273 12.6348L8.95262 23.2151L7.18107 24.059L6.27396 23.8599L7.31066 25.1242L7.47817 24.413L7.60302 24.4794V24.4794ZM294.865 14.1314L291.964 17.281C289.593 19.3164 288.563 18.6337 288.563 18.6337V11.666L284.396 14.0602L284.415 19.3259L286.859 21.7391L283.971 25.1447C282.555 26.6271 283.647 28.7226 283.677 28.7716C284.723 30.7249 286.733 31.3491 286.733 31.3491C286.733 31.3491 283.569 27.757 286.687 27.8123C288.761 27.8518 289.44 29.4575 289.44 29.4575L292.218 27.5832L292.221 26.6018C292.221 26.6018 291.882 24.8271 288.854 23.882C287.588 23.487 285.396 24.432 285.396 24.432C292.291 15.6248 292.229 21.0706 292.229 21.0706L292.217 27.5832L296.171 24.9077L296.199 18.5942C296.199 18.5942 294.791 16.7563 293.255 16.7326L295.629 14.0666C296.836 12.6964 296.073 9.39668 296.073 9.39668C296.073 9.39668 295.189 11.3294 294.004 11.4116C292.819 11.4922 291.55 9.94822 291.55 9.94822L288.561 11.666L288.571 12.7027C288.571 12.7027 290.531 16.0056 294.472 14.4206L294.865 14.1314V14.1314ZM47.1225 22.7347L47.113 14.2926L51.0464 19.7937L46.6831 23.035L46.7906 23.5834L54.4631 17.6966L50.8489 11.7972L42.5427 16.1368L42.4984 26.744L41.2405 27.501L41.5787 28.0288L42.9456 26.9605L47.3469 29.7814L55.149 24.7654L54.8345 24.3672L50.5012 27.3793L47.0624 24.9156L47.0861 23.3574L47.1225 22.7347V22.7347ZM64.8444 32.8346C64.8444 32.8346 62.5987 31.9765 63.0523 29.8257C63.6686 26.872 68.6324 29.862 68.6324 29.862L71.7362 27.3098L72.8235 26.3537L72.4616 26.0455L71.4754 26.7646C71.4754 26.7646 69.3025 24.511 66.7408 24.2803L66.7929 8.92258L79.6806 30.2255L80.1847 30.2223L80.4328 8.15927C80.4186 8.15611 83.5002 7.2822 84.1039 6.03847C85.2623 3.64584 85.0237 1.89483 85.0237 1.89483L84.1624 3.0295C84.6665 2.32151 82.1633 4.65252 80.3885 3.38193C79.2191 2.55067 78.3784 3.06428 78.3784 3.06428L74.1114 7.91117C74.1114 7.91117 74.8273 7.58403 75.7882 7.05778C76.749 6.52995 77.3669 7.51924 78.4811 8.02969C78.9915 8.26358 79.8654 8.16243 79.8654 8.16243L79.8133 20.6992C79.8133 20.6992 72.2561 8.08184 70.306 4.96542C70.129 4.68254 68.0019 -0.565749 63.3288 4.04093C62.684 4.67464 62.0235 8.94312 62.978 7.23162C64.4509 4.58772 65.7926 7.06726 65.7926 7.06726L66.205 7.87797L66.1955 12.845C57.4136 16.2506 64.0984 20.1287 64.0984 20.1287C64.0984 20.1287 63.332 17.7946 66.2177 17.2589L66.1876 24.3972C63.3525 24.8113 57.717 25.8669 61.0705 31.3017C61.0705 31.3017 60.9283 31.4313 62.3806 32.419C63.8393 33.4083 64.1632 32.9247 64.8444 32.8346V32.8346ZM88.7849 22.4803L88.7785 14.0365L92.7057 19.5377L88.4182 22.7963L88.3645 23.3447L96.2314 17.3632L92.339 11.3436L84.2651 15.8808L84.1324 26.1767L82.6137 27.4583L83.0056 27.9245L84.5875 26.5544L88.7975 29.6471L96.7656 24.7639L96.4558 24.3656L92.4275 27.038L88.8054 24.3893L88.7722 23.1029L88.7849 22.4803V22.4803ZM214.858 24.029L214.508 23.7287C214.508 23.7287 212.909 21.5273 212.517 18.5895C212.138 15.7638 212.857 13.82 212.857 13.82L212.983 13.1279C214.61 10.22 217.585 8.2051 217.585 8.2051C217.585 8.2051 215.558 8.03601 211.675 11.7134C202.038 20.8446 212.98 35.379 224.092 30.333C229.756 27.7586 229.854 20.8889 229.854 20.8889C229.854 20.8889 227.162 24.1617 225.277 25.5477L225.308 18.4236L228.102 16.4023L225.331 14.193L225.299 9.10905L227.895 8.3584C234.719 2.39737 225.926 0.56261 226.034 0.617921C229.379 2.28201 226.454 3.97297 224.558 3.63004C220.267 2.85725 214.927 -1.27058 210.517 3.1907C206.517 7.23636 211.054 9.8376 211.054 9.8376C209.832 1.87587 223.703 10.0825 224.904 8.99211L224.852 14.1598L222.721 16.3233L224.839 18.3477L224.833 25.7895C224.34 26.1166 223.997 26.3632 223.625 26.4754C220.97 27.2497 218.255 27.0806 214.927 24.1475L214.858 24.029V24.029ZM214.929 24.1491L221.389 20.8509L221.454 9.50414L212.985 13.1263L212.661 12.4104L212.162 14.2167L212.859 13.8185L216.402 12.3045L216.282 22.8848L214.51 23.7272L213.603 23.5296L214.64 24.7939L214.806 24.0812L214.929 24.1491V24.1491ZM274.361 21.2761L274.351 12.8292L278.28 18.3351L273.918 21.5763L274.025 22.1215L281.701 16.2379L278.081 10.3354L269.774 14.6734L269.732 25.2806L268.475 26.0376L268.809 26.5654L270.176 25.5003L274.7 29.5586L282.379 23.3036L282.065 22.9054L277.735 26.4627L274.296 23.4538L274.318 21.8956L274.361 21.2761V21.2761ZM141.456 29.075L141.548 5.49168L141.524 1.44601L140.947 1.44759L140.84 28.6088L141.456 29.075V29.075ZM143.667 16.8859C144.928 16.8732 145.163 17.5891 145.163 17.5891L145.995 18.4172L145.892 16.1163L145.244 16.8353C145.244 16.8353 144.781 16.366 143.483 16.3802C142.221 16.3928 141.51 16.9902 141.51 16.9902L141.295 16.5951L141.342 17.9621L141.495 17.6128C141.495 17.6128 142.407 16.8985 143.667 16.8859V16.8859ZM141.533 13.9828C141.533 13.9828 142.105 14.773 143.368 14.7667C144.624 14.7603 145.192 14.1566 145.192 14.1566L146.173 14.803L146.075 12.3377L145.31 13.3839C145.31 13.3839 144.721 14.1645 143.46 14.1725C142.202 14.1788 141.533 13.2922 141.533 13.2922L141.254 12.9208L141.301 14.291L141.533 13.9828V13.9828ZM149.114 32.3937C146.268 30.8039 140.794 31.7 136.465 32.6687C132.137 33.6374 131.87 31.613 132.418 29.6629C133.216 26.8136 141.268 29.6692 145.249 30.1481C150.911 30.8244 150.31 25.2617 150.31 25.2617L150.443 4.80738L151.82 3.41827L151.402 3.08956L150.045 4.43601L146.456 1.07305C146.456 1.07305 142.685 3.94611 141.548 5.49325L141.285 5.26252L141.333 6.52047L141.533 6.17912L142.813 4.83899C142.813 4.83899 142.619 4.54979 143.686 5.42846C144.752 6.31187 145.332 6.67693 145.332 6.67693L145.135 26.1798C144.882 29.1588 141.996 28.6673 141.437 28.7084L140.841 28.612C139.038 28.6151 138.295 27.6116 138.295 27.6116L138.418 6.92188C138.51 7.85902 139.28 -2.12397 131.076 2.2346C129.028 3.32187 129.747 5.20089 129.314 5.64971C132.747 2.09237 133.384 5.77929 133.384 5.77929L133.363 13.0899C133.363 13.0899 129.535 12.63 128.597 16.8258C128.614 19.3481 131.661 20.3231 131.661 20.3231C131.661 20.3231 130.556 19.0383 131.263 18.1423C132.257 16.8732 133.382 17.5212 133.382 17.5212L133.376 27.9893C133.376 27.9893 128.047 29.8352 129.479 34.1289C131.824 41.1472 140.448 36.4157 143.732 36.1233C149.693 35.5892 146.012 39.6759 146.012 39.6759C146.012 39.6759 149.165 40.4993 150.359 35.7772C150.356 35.7756 151.191 33.5505 149.114 32.3937V32.3937ZM163.111 44.4216C163.111 47.0055 161.117 48.7391 158.095 48.7391C155.624 48.7391 153.892 47.557 153.302 45.4678L154.984 44.7172C155.443 46.4303 156.518 47.3168 158.095 47.3168C159.977 47.3168 161.227 46.2327 161.227 44.6966C161.227 43.4371 160.415 42.511 158.795 41.8789L156.888 41.1535C154.811 40.3633 153.801 39.1418 153.801 37.4287C153.801 35.4533 155.598 33.9567 158.206 33.9567C160.085 33.9567 161.49 34.6884 162.253 36.087L160.725 36.9751C160.042 35.9068 159.19 35.3553 158.07 35.3553C156.671 35.3553 155.687 36.2039 155.687 37.4081C155.687 38.4148 156.363 39.1244 157.789 39.6775L160.02 40.5641C162.079 41.3479 163.111 42.6469 163.111 44.4216V44.4216ZM172.963 41.9405L167.664 34.2917H169.812L173.908 40.4029L177.982 34.2917H180.124L174.825 41.9405V48.3851H172.963V41.9405V41.9405ZM185.994 33.7386L197.446 44.9922V34.2917H199.223V48.9367L187.766 37.8001V48.3851H185.994V33.7386ZM208.792 46.808V35.8468H209.974C212.669 35.8468 214.534 35.8894 215.823 36.874C217.116 37.8364 217.792 39.3377 217.792 41.3274C217.792 43.317 217.092 44.8547 215.823 45.7997C214.508 46.7843 212.647 46.8064 209.974 46.8064H208.792V46.808V46.808ZM206.91 48.3851H210.589C213.132 48.3851 215.188 48.3235 217.007 47.064C218.804 45.8234 219.744 43.8717 219.744 41.3479C219.744 38.8241 218.802 36.8534 217.007 35.6129C215.103 34.2917 212.846 34.2917 209.911 34.2917H206.912V48.3851H206.91ZM226.75 34.2917H228.611V48.3851H226.75V34.2917ZM243.832 35.5133C242.19 35.5133 240.526 36.1423 239.366 37.2296C238.161 38.35 237.572 39.7296 237.572 41.3874C237.572 42.6896 237.918 43.7895 238.643 44.7172C239.89 46.3165 241.798 47.2236 243.922 47.2236C245.891 47.2236 247.623 46.4919 249.042 44.9922V47.2236C247.468 48.2338 245.637 48.7678 243.767 48.7613C242.135 48.7688 240.534 48.3176 239.146 47.4591C236.869 46.0399 235.622 43.9096 235.622 41.4095C235.622 39.2176 236.434 37.465 238.076 36.0269C239.672 34.6473 241.6 33.9551 243.901 33.9551C245.763 33.9551 247.425 34.4671 249.044 35.4738V37.6626C247.533 36.1834 245.869 35.5133 243.832 35.5133V35.5133ZM261.113 37.4429L263.606 42.628H258.612L261.113 37.4429ZM261.113 33.7386L254.017 48.3851H256.029L258.066 44.0677H264.177L266.214 48.3851H268.229L261.113 33.7386V33.7386ZM275.309 35.8894H270.885V34.2917H281.595V35.8894H277.194V48.3851H275.309V35.8894V35.8894ZM287.618 34.2917H295.874V35.8278H289.48V39.8687H295.874V41.4238H289.48V46.8253H295.874V48.3851H287.618V34.2917Z" fill="white"/>
</svg>
