<svg width="216" height="71" viewBox="0 0 216 71" fill="none" xmlns="http://www.w3.org/2000/svg">
<path opacity="0.2" d="M48.9925 37.779L52.7548 35.8336V6.26745H49.9102L42.9637 15.4805H42.1837L42.6241 5.1204H72.7409L73.1814 15.4897H72.3463L65.5375 6.27662H62.6102V35.7602L66.3909 37.7607V38.7609H48.9925V37.779ZM76.1086 36.476V3.7256L73.1814 2.55102V1.94539L83.7342 0H84.8904V15.5447L85.1382 15.297C87.6617 13.1497 90.8642 11.9568 94.1861 11.9384C98.8109 11.9384 100.848 14.5537 100.848 19.408V36.4668L103.317 37.8157V38.7517H89.5153V37.8157L91.9929 36.4668V19.3529C91.9929 16.6734 90.8183 15.609 88.6344 15.609C87.313 15.5814 86.0191 16.0036 84.9822 16.8111V36.5219L87.4139 37.8708V38.7609H73.6127V37.8708L76.1086 36.476ZM110.823 26.4187C111.107 31.8328 113.539 36.0172 119.283 36.0172C122.064 36.0172 124.037 34.7325 125.863 33.7506V34.8151C123.376 37.8524 119.641 39.5868 115.714 39.5409C106.804 39.5409 102.261 34.5857 102.261 26.0149C102.261 17.6369 107.244 12.4156 115.282 12.4156C122.853 12.4156 126.78 16.1963 126.78 26.1618V26.4187H110.823ZM110.676 25.1615L118.531 24.6844C118.531 17.9765 117.384 13.5259 115.081 13.5259C112.621 13.5351 110.676 18.7106 110.676 25.1615ZM0 51.8739C0 37.623 9.43329 32.5485 19.9402 32.5485C24.3999 32.5485 28.6027 33.2826 30.961 34.237L31.1629 44.1841H30.1627L23.9962 34.5581C22.7573 34.0626 21.4268 33.8516 20.087 33.925C14.4986 33.925 11.6448 40.3851 11.7366 50.9654C11.8375 63.6196 14.0398 69.3824 19.1694 69.3824C20.2155 69.4191 21.2616 69.2447 22.2435 68.8685V55.3059L18.8574 53.3788V52.2226H35.2097V53.4339L31.8786 55.2967V68.6758C27.9145 70.0798 23.73 70.7955 19.5181 70.7772C7.57966 70.7864 0 65.253 0 51.8739M33.6956 45.221V44.3952L44.6613 42.459L45.8726 42.5599V64.2344C45.8726 66.8497 47.1297 67.648 49.2403 67.648C50.6259 67.6664 51.9381 67.0516 52.8099 65.9688V46.5241L49.8001 45.2119V44.3676L60.7658 42.4314L61.867 42.5324V67.4003L64.8309 68.6391V69.4283L54.0762 70.7496L52.9751 70.6487V67.3819H52.6722C50.4607 69.5384 47.5151 70.7772 44.4319 70.8506C39.1555 70.8506 36.7421 67.7398 36.7421 63.014V46.5241L33.6956 45.221ZM102.637 42.4131L103.546 42.514V50.5617H103.794C104.968 44.7072 107.556 42.514 110.722 42.514C111.181 42.4957 111.639 42.5599 112.071 42.7159V50.8645C111.327 50.7085 110.566 50.6443 109.813 50.6626C107.758 50.6076 105.712 51.0205 103.83 51.8555V67.7215L106.336 69.1071V70.1991H92.0755V69.1163L94.6449 67.7215V46.0653L91.635 45.166V44.4319L102.637 42.4131ZM130.231 43.0921V34.6315L127.221 33.5763V32.9064L138.324 30.8692L139.38 31.0252V67.3636L142.444 68.4739V69.4099L131.479 70.8689L130.625 70.768V67.7765H130.378C128.478 69.7861 125.826 70.8965 123.064 70.8414C117.081 70.8414 112.713 66.2716 112.713 56.9484C112.713 47.1022 117.788 42.2571 125.477 42.2571C127.092 42.1745 128.726 42.459 130.231 43.0921ZM130.231 66.3634V44.6062C129.387 43.8905 128.295 43.551 127.193 43.6611C124.22 43.762 122.385 48.2492 122.385 56.2418C122.385 63.4269 123.697 67.4462 127.661 67.3085C128.607 67.3177 129.515 66.9782 130.231 66.3634ZM154.465 42.4131L155.42 42.514V67.7215L157.925 69.1071V70.1991H143.665V69.1163L146.225 67.7215V46.469L143.16 45.2578V44.4135L154.465 42.4131ZM155.466 35.5951C155.383 38.2103 153.208 40.2658 150.593 40.2199C148.868 40.2842 147.244 39.4032 146.363 37.9258C145.482 36.4485 145.482 34.5948 146.363 33.1174C147.244 31.6401 148.868 30.7591 150.593 30.8234C153.245 30.7866 155.429 32.9156 155.466 35.5675V35.5951ZM187.491 67.7215V46.2396L184.481 45.1843V44.1474L195.447 42.1103L196.548 42.2112V45.4321H196.851C199.457 43.2023 202.77 41.9726 206.202 41.9634C210.973 41.9634 213.084 44.2208 213.084 49.277V67.6847L215.644 69.1438V70.2082H201.366V69.1254L203.926 67.7306V49.7266C203.926 46.9646 202.715 45.8542 200.457 45.8542C199.099 45.8175 197.778 46.2396 196.695 47.0563V67.7215L199.209 69.1071V70.2082H184.94V69.1254L187.491 67.7215ZM171.974 54.223V50.6167C171.974 45.1935 170.79 43.4133 167.432 43.4133C167.055 43.4225 166.67 43.4592 166.294 43.5142L160.32 51.6078H159.476V44.1474C162.706 43.0371 166.092 42.4498 169.506 42.4039C176.819 42.4039 181.049 44.4319 181.049 50.5525V68.1069L183.665 68.7951V69.4833C182.004 70.3367 180.15 70.7588 178.278 70.7221C174.672 70.7221 172.947 69.5384 172.157 67.5655H171.901C170.368 69.6393 168.202 70.8231 164.789 70.8231C160.448 70.8231 157.475 68.1069 157.475 63.4269C157.475 58.8846 160.292 56.4254 166.019 55.3334L171.974 54.223ZM171.974 66.3634V55.5077L170.148 55.6546C167.285 55.9023 166.248 57.7284 166.248 61.7752C166.248 66.1615 167.707 67.2993 169.698 67.2993C170.561 67.3819 171.414 67.0332 171.974 66.3634V66.3634ZM79.3846 54.223V50.6167C79.3846 45.1935 78.2008 43.4133 74.8423 43.4133C74.4661 43.4225 74.0807 43.4592 73.7044 43.5142L67.7306 51.5986H66.8956V44.1474C70.1257 43.0371 73.5026 42.4498 76.9162 42.4039C84.2297 42.4039 88.46 44.4319 88.46 50.5525V68.1069L91.0753 68.7951V69.4833C89.4144 70.3367 87.5607 70.7588 85.6888 70.7221C82.0824 70.7221 80.3573 69.5384 79.5681 67.5655H79.3204C77.7879 69.6393 75.6223 70.8231 72.2087 70.8231C67.8683 70.8231 64.8951 68.1069 64.8951 63.4269C64.8951 58.8846 67.7123 56.4254 73.4383 55.3334L79.3846 54.223ZM79.3846 66.3634V55.5077L77.5585 55.6546C74.6955 55.9023 73.6586 57.7284 73.6586 61.7752C73.6586 66.1615 75.1176 67.2993 77.1089 67.2993C77.9714 67.3819 78.8248 67.0332 79.3846 66.3634" fill="white"/>
</svg>
