<svg width="251" height="38" viewBox="0 0 251 38" fill="none" xmlns="http://www.w3.org/2000/svg">
<g opacity="0.2">
<path d="M240.834 12.1751C242.731 10.508 244.431 9.57952 245.472 9.57952C247.024 9.57952 248.177 10.961 249.329 10.961C249.905 10.961 250.339 10.498 250.567 10.0425L251 10.3696C249.855 11.9499 248.769 13.5724 247.745 15.2336C246.506 13.5276 244.404 12.3059 242.964 12.3059C241.492 12.3059 241.262 13.3124 241.838 14.1491C242.929 15.6211 245.55 17.1598 247.512 18.7262C249.154 20.0121 250.132 21.2425 250.132 23.0618C250.132 25.3869 247.37 27.7975 245.381 31.0724C243.421 30.0282 240.833 28.8908 238.816 28.8908C237.408 28.8908 236.568 29.5614 236.251 30.4459L236.019 30.3201C236.651 27.064 237.803 24.3489 240.079 24.3489C241.871 24.3489 243.912 25.6838 246.159 27.4062C246.501 27.6742 246.763 27.5899 246.935 27.2615C247.257 26.5242 247.136 25.1264 245.551 23.784C243.795 22.2994 241.956 21.4589 240.487 20.3857C238.414 18.8546 237.948 17.6493 237.948 16.444C237.952 15.25 238.759 13.9918 240.834 12.1751ZM186.972 9.42351L189.942 3.98329L192.587 5.99632L187.866 10.1646M191.93 23.5085C191.93 26.1845 192.563 27.1269 193.772 27.1269C194.435 27.1269 194.839 26.7784 194.839 26.7784L195.073 27.3886C193.722 28.3322 191.356 30.2131 190.321 31.1781C187.438 28.6077 186.804 27.6553 186.804 23.4883V15.7872C186.804 14.4536 186.289 13.8308 185.134 13.3212V13.2281C186.289 12.5362 188.474 11.2654 190.176 10.162C191.561 11.7662 191.933 12.8041 191.933 15.4085M229.688 30.6207C228.966 31.0724 228.363 31.0724 227.616 30.6874C224.56 29.121 223.469 26.7029 223.469 22.6605V15.2877C223.469 14.8348 223.582 14.5366 223.985 14.324L231.765 10.0715C232.109 9.89532 232.284 9.95067 232.459 10.2199L236.171 16.2779C236.373 16.6214 236.349 16.8441 236.029 17.0655C233.464 18.9565 229.866 21.3935 228.223 22.4315L228.141 21.3281C229.205 20.6889 230.958 19.5277 231.91 18.7338C232.198 18.4947 232.252 18.2595 232.027 17.9097L229.146 13.3967C228.829 12.8884 228.311 13.164 228.311 13.666V21.396C228.311 24.6647 229.521 26.8086 231.85 26.8086C234.127 26.8086 235.707 24.8509 236.398 23.516L236.484 23.5424V25.324C234.525 27.1671 231.842 29.3148 229.684 30.622M77.2149 9.81983C75.6045 7.56397 72.405 4.42867 69.2949 4.42867C67.2491 4.42867 66.269 5.70569 66.269 6.75624C66.269 8.17291 67.4517 9.12785 70.5341 11.1094C76.6399 15.0374 81.3919 17.7524 81.3919 22.9687C81.3919 28.4089 75.5466 30.3553 73.8431 34.4367H73.7298C69.9277 28.9172 63.2746 27.8214 60.5696 30.2697L60.3683 30.1225C60.7105 27.6415 62.209 23.1901 65.8098 23.1901C69.1225 23.1901 73.4996 27.5936 76.1769 28.7134C76.582 28.8732 76.9268 28.7776 77.186 28.463C77.5307 28.0378 77.7333 27.3722 77.7333 26.3154C77.7333 18.9779 62.526 16.8831 62.526 11.0088C62.526 9.62859 63.793 7.14627 65.5783 4.95709C67.8845 2.09985 70.2448 0.832892 72.8089 0.832892C76.7821 0.832892 78.7423 3.79834 80.4131 3.79834C81.1026 3.79834 81.5643 3.42845 81.9984 2.84215L82.401 3.30012C80.554 5.22508 78.2793 8.30376 77.2149 9.82108M76.7242 26.4173C76.7242 19.8925 61.3434 17.8556 61.3434 11.0075L61.171 11.0327C60.0764 18.7074 75.1968 20.6789 76.5519 26.4601M129.661 21.8288C129.661 25.1025 130.324 26.4701 131.885 26.4701C132.687 26.4701 133.263 25.9543 133.263 25.9543L133.496 26.5519C131.954 28.0584 130.446 29.5991 128.972 31.1731C126.925 29.6759 125.402 28.0705 124.997 26.2286L124.852 25.7857V10.5068C124.852 8.48871 124.475 7.54258 123.096 7.18904V7.09846C125.256 5.89315 127.499 4.49032 129.545 3.13782L129.663 3.2045M120.732 21.7999C120.732 25.3906 121.509 26.5519 123.065 26.5519C124.507 26.5519 125.343 25.0799 125.343 25.0799L125.686 25.9354C124.451 27.0627 121.22 30.125 120.188 31.1781C116.904 28.9613 115.895 27.1848 115.895 23.0065V10.5093C115.895 8.48997 115.518 7.54384 114.168 7.1903V7.09846C116.356 5.85773 118.498 4.53704 120.589 3.13907L120.734 3.20576M132.196 13.0633L133.233 10.9434H112.293L113.101 13.0633M148.066 30.6874C145.011 29.121 143.921 26.7029 143.921 22.6605V15.2877C143.921 14.8348 144.039 14.5366 144.436 14.3252L152.244 10.0727C152.559 9.89657 152.76 9.95193 152.936 10.2212L156.648 16.2791C156.849 16.6226 156.791 16.8453 156.507 17.0667C153.944 18.9577 150.342 21.3935 148.671 22.4315L148.613 21.3281C149.68 20.6902 151.435 19.5289 152.385 18.7338C152.644 18.4947 152.729 18.2595 152.504 17.9084L149.622 13.3955C149.334 12.9526 148.788 13.1627 148.788 13.6635V21.3948C148.788 24.6659 150.082 26.8992 152.443 26.8992C154.69 26.8992 156.56 24.7226 157.312 23.3751L157.395 23.4015V25.183C155.377 27.035 152.329 29.3123 150.163 30.622C149.445 31.0762 148.844 31.0762 148.067 30.6887M139.425 22.1912C139.425 25.4624 140.258 26.4802 141.899 26.4802C142.735 26.4802 143.34 25.9518 143.34 25.9518L143.572 26.5519C142.304 27.722 139.857 30.1036 138.88 31.1781C135.449 28.6996 134.53 27.4276 134.53 23.0065V8.60949C134.53 6.59646 134.152 5.64027 132.802 5.30057V5.19992C135.01 3.96472 137.171 2.64822 139.282 1.25311L139.426 1.30847M107.111 18.0141C104.663 19.763 100.196 22.2201 98.1529 23.443C97.8384 23.6192 97.7503 23.8683 97.7503 24.2633C97.7503 27.2615 98.6134 29.6105 100.659 30.6459C101.293 30.9718 101.842 30.9516 102.385 30.5151L107.254 26.5683L106.937 25.5706C106.506 26.3305 105.757 26.9772 104.809 26.9772C103.253 26.9772 102.563 25.1403 102.563 22.4894C102.563 22.2189 102.588 22.0691 102.789 21.9219C103.855 21.1356 105.985 19.8057 107.195 19.1754M111.487 22.6818C111.487 24.6332 111.604 25.4057 112.091 26.1921C112.408 26.7343 112.896 27.0199 113.387 27.0199C113.965 27.0199 114.28 26.6677 114.28 26.6677L114.539 27.2716C113.414 28.1321 111.054 30.1603 109.957 31.1768C108.002 29.3878 106.962 28.2227 106.677 26.182V16.9975C106.677 16.186 106.501 15.5721 105.897 15.0889C105.18 14.4976 103.793 13.5892 102.959 13.164C102.471 12.9123 102.125 13.164 102.125 13.6924V16.9233C102.125 17.6556 101.895 18.1286 101.375 18.3991L98.2964 19.9655C98.0913 20.0762 97.9479 19.9844 97.9479 19.7541V15.2827C97.9479 14.9505 98.0334 14.7455 98.3215 14.5681L105.38 10.0111C105.665 9.83492 105.78 9.83492 106.069 10.0111C107.453 10.8792 109.785 12.5651 111.14 13.632C111.396 13.8283 111.483 14.0975 111.483 14.3869M89.6265 30.6207C88.8766 31.0724 88.2753 31.0724 87.5254 30.6874C84.4706 29.121 83.3773 26.7029 83.3773 22.6605V15.2877C83.3773 14.8348 83.4905 14.5366 83.8931 14.324L91.6999 10.0715C92.0145 9.89532 92.2158 9.95067 92.3642 10.2199L96.0758 16.2779C96.3072 16.6214 96.2481 16.8441 95.9323 17.0655C93.3682 18.9565 89.7699 21.3935 88.128 22.4315L88.0689 21.3281C89.1333 20.6889 90.8922 19.5277 91.8144 18.7338C92.1038 18.4947 92.1579 18.2595 91.9314 17.9097L89.0503 13.3967C88.7357 12.8884 88.2149 13.164 88.2149 13.666V21.396C88.2149 24.6647 89.4529 26.8086 91.788 26.8086C94.0338 26.8086 95.6128 24.8509 96.3072 23.516L96.3953 23.5424V25.324C94.4376 27.1671 91.7578 29.3148 89.6265 30.622M46.803 30.6874C43.7759 29.121 42.6826 26.7029 42.6826 22.6605V15.2877C42.6826 14.8348 42.7706 14.5366 43.1984 14.3252L50.9775 10.0727C51.2946 9.89657 51.4934 9.95193 51.6695 10.2212L55.381 16.2791C55.5861 16.6226 55.5572 16.8453 55.2401 17.0667C52.676 18.9577 49.0777 21.3935 47.4019 22.4315L47.3478 21.3281C48.4147 20.6902 50.1698 19.5289 51.1184 18.7338C51.4078 18.4947 51.467 18.2595 51.2355 17.9084L48.3543 13.3955C48.0687 12.9526 47.5201 13.1627 47.5201 13.6635V21.3948C47.5201 24.6659 48.8475 26.8992 51.1776 26.8992C53.4548 26.8992 55.3257 24.7226 56.0441 23.3751L56.1322 23.4015V25.183C54.1153 27.035 51.0618 29.3123 48.9041 30.622C48.1832 31.0762 47.5768 31.0762 46.803 30.6874M30.4396 23.2568C30.4396 26.3342 30.9013 27.1948 32.5444 28.6039L28.7448 31.9556C26.2663 29.6256 25.5743 28.4177 25.5466 24.0243V12.3864C25.5466 10.3759 25.2862 9.38325 23.9022 9.13414V9.04355C25.9492 7.7917 28.2806 6.1624 30.2987 4.64759L30.4396 4.71301V13.1275C30.4396 13.5704 30.7289 13.7943 31.2171 13.5049C32.6011 12.6997 34.6166 11.4416 35.9414 10.5508C36.1176 10.43 36.2585 10.4023 36.4598 10.5055C38.8503 11.6278 39.8291 13.4534 39.8291 15.1959V24.2961C39.8291 28.6996 39.112 30.1653 31.7065 37.3556L30.7881 36.724C34.3285 34.3612 34.7009 31.4046 34.7009 26.3745V17.409C34.7009 16.3332 34.6757 15.6098 34.4442 14.9531C34.1838 14.2422 33.7523 13.7327 33.0049 13.7327C32.1116 13.7327 31.0447 14.6888 30.4383 15.4161M0.748597 9.43987C0.690722 8.54281 0.9499 7.62814 1.61043 6.91099C2.38796 6.08565 3.51274 5.71576 5.35592 5.71576C8.75292 5.71576 14.8021 8.28237 20.0725 8.28237C24.6798 8.28237 27.8201 3.79834 29.0015 1.41793L28.5096 0L28.424 0.00880703C28.1346 1.9841 26.4399 4.41735 22.6642 4.41735C19.0936 4.41735 12.0392 1.67459 8.35157 1.67459C3.05226 1.67585 0.460481 5.56729 0 8.75544L0.69198 9.47258" fill="white"/>
<path d="M18.0267 7.41928H19.1515V30.422H18.0267V7.41928ZM9.79088 7.64323L10.3659 7.99551C7.91751 9.79466 5.98751 13.2105 5.98751 17.4442C5.98751 24.4974 10.0765 30.344 16.7031 30.344C20.5027 30.344 22.8932 28.3863 24.0734 26.4714L24.1589 26.4915L24.2759 28.1648C22.4302 29.8445 18.4306 32.7822 13.4483 32.7822C5.67046 32.7822 0.976318 27.4553 0.976318 20.4486C0.976318 13.9113 5.52703 9.85128 9.78963 7.64575M16.0414 7.37399L13.1313 8.98693C11.3195 9.98087 10.9446 11.0427 10.9446 13.0533C10.9446 14.8524 11.4328 17.9185 11.4328 20.3543C11.4328 22.858 10.9119 23.6418 8.77808 24.5464L9.15552 25.2095C10.5395 24.5703 12.9576 23.365 14.5429 22.3648C15.8099 21.5508 16.0401 21.0941 16.0401 19.7881V11.8857C16.0401 9.31908 16.098 8.52394 16.5886 7.8395M210.393 23.9337C210.393 26.4538 211.2 27.3458 212.203 27.3458C212.805 27.3458 213.217 27.0023 213.217 27.0023L213.443 27.61C212.318 28.3699 209.816 30.2433 208.72 31.1794C205.811 28.4177 205.265 27.4553 205.265 23.2845V17.4127C205.265 16.3358 205.204 15.6136 204.976 14.9568C204.744 14.246 204.313 13.7327 203.563 13.7327C202.672 13.7327 201.634 14.6322 201.026 15.3682V23.9362C201.026 26.4563 201.862 27.3483 202.871 27.3483C203.474 27.3483 203.85 27.0048 203.85 27.0048L204.081 27.6125C202.958 28.3724 200.482 30.2458 199.356 31.1844C196.477 28.4202 195.925 27.5031 195.925 23.3336V15.7948C195.925 14.4611 195.38 13.8371 194.226 13.3288V13.2294C195.38 12.5374 197.596 11.2667 199.265 10.1633C199.994 11.117 200.515 12.2129 200.795 13.3804C200.877 13.7704 201.228 13.8459 201.567 13.6572C203.037 12.8318 205.084 11.4894 206.492 10.5533C206.668 10.4325 206.81 10.4049 207.011 10.508C208.597 11.2591 209.55 12.3323 210.036 13.4521C210.21 13.8321 210.527 13.8899 210.871 13.6861C212.4 12.8054 214.412 11.5095 215.826 10.5533C216.025 10.4225 216.144 10.4049 216.342 10.508C219.022 11.741 219.716 13.2042 219.716 16.5094V23.935C219.716 26.4538 220.55 27.3445 221.557 27.3445C222.161 27.3445 222.538 27.0023 222.538 27.0023L222.771 27.61C221.645 28.3712 219.17 30.2433 218.048 31.1844C215.166 28.4177 214.618 27.4553 214.618 23.2883V17.4152C214.618 16.3383 214.559 15.6161 214.33 14.9593C214.097 14.2485 213.637 13.7352 212.89 13.7352C212.024 13.7352 210.99 14.636 210.386 15.3708M161.657 9.43987C161.597 8.54281 161.86 7.62562 162.522 6.91099C163.3 6.08565 164.425 5.71575 166.268 5.71575C169.666 5.71575 175.715 8.28237 180.989 8.28237C185.594 8.28237 188.734 3.79834 189.912 1.41793L189.428 0L189.34 0.00880703C189.08 1.9841 187.354 4.41735 183.58 4.41735C180.007 4.41735 172.952 1.67459 169.266 1.67459C163.969 1.67459 161.402 5.56729 160.911 8.75418L161.604 9.47132" fill="white"/>
<path d="M178.942 7.41929H180.063V30.422H178.942V7.41929ZM170.705 7.64324L171.28 7.99552C168.833 9.79466 166.903 13.2105 166.903 17.4442C166.903 24.4974 170.988 30.344 177.615 30.344C181.422 30.344 183.814 28.3863 184.99 26.4714L185.078 26.4915L185.189 28.1648C183.351 29.8445 179.344 32.7822 174.363 32.7822C166.587 32.7822 161.894 27.4553 161.894 20.4486C161.892 13.9113 166.444 9.85128 170.709 7.64575M176.981 7.37399L174.042 8.98694C172.231 9.98087 171.855 11.0427 171.855 13.0533C171.855 14.8524 172.347 17.9185 172.347 20.3543C172.347 22.858 171.826 23.6418 169.696 24.5464L170.074 25.2095C171.483 24.5703 173.874 23.365 175.458 22.3648C176.724 21.5508 176.954 21.0941 176.954 19.7881V11.8857C176.954 9.31909 177.014 8.52394 177.505 7.83951" fill="white"/>
<path d="M132.191 13.062L133.228 10.9433H112.298L113.104 13.062H132.191V13.062Z" fill="white"/>
</g>
</svg>
