<svg width="30" height="30" fill="#ffffff" viewBox="0 0 24 24" xmlns="http://www.w3.org/2000/svg">
  <path d="M13.028 9.416a.434.434 0 0 1 .824 0l.774 2.325a3.469 3.469 0 0 0 2.194 2.194l2.324.774a.434.434 0 0 1 0 .823l-2.325.774a3.465 3.465 0 0 0-2.193 2.194l-.774 2.324a.435.435 0 0 1-.666.215.434.434 0 0 1-.158-.215l-.774-2.325a3.468 3.468 0 0 0-2.193-2.193l-2.325-.774a.434.434 0 0 1 0-.823l2.325-.774a3.469 3.469 0 0 0 2.193-2.194l.774-2.325ZM8.393 3.298a.26.26 0 0 1 .494 0l.465 1.394a2.083 2.083 0 0 0 1.316 1.316l1.394.465a.26.26 0 0 1 0 .494l-1.394.465a2.081 2.081 0 0 0-1.316 1.316l-.465 1.395a.26.26 0 0 1-.494 0l-.465-1.395a2.08 2.08 0 0 0-1.316-1.316l-1.394-.465a.26.26 0 0 1 0-.494l1.394-.465a2.08 2.08 0 0 0 1.316-1.316l.465-1.394Zm8.483-1.26a.174.174 0 0 1 .328 0l.31.93c.138.415.463.74.878.878l.93.31a.174.174 0 0 1 0 .328l-.93.31a1.387 1.387 0 0 0-.878.878l-.31.93a.174.174 0 0 1-.328 0l-.31-.93a1.387 1.387 0 0 0-.878-.878l-.928-.31a.174.174 0 0 1 0-.328l.929-.31c.415-.138.74-.463.878-.878l.309-.928Z"></path>
</svg>