<svg width="142" height="57" viewBox="0 0 142 57" fill="none" xmlns="http://www.w3.org/2000/svg">
<path d="M69.9871 15.4176V20.6053H62.9439V42H56.4687V20.6053H49.4255V15.4176H69.9871ZM71.9493 31.3973C71.9493 29.2263 72.3532 27.3204 73.1611 25.6795C73.9941 24.0386 75.1175 22.7764 76.5312 21.8928C77.9449 21.0092 79.5227 20.5675 81.2645 20.5675C82.7539 20.5675 84.054 20.8704 85.1648 21.4763C86.3008 22.0821 87.1717 22.8773 87.7776 23.8619V20.8704H94.2528V42H87.7776V39.0085C87.1465 39.9931 86.2629 40.7883 85.1269 41.3941C84.0162 42 82.7161 42.3029 81.2267 42.3029C79.51 42.3029 77.9449 41.8612 76.5312 40.9776C75.1175 40.0688 73.9941 38.794 73.1611 37.1531C72.3532 35.4869 71.9493 33.5684 71.9493 31.3973ZM87.7776 31.4352C87.7776 29.8196 87.3232 28.5447 86.4144 27.6107C85.5308 26.6766 84.4453 26.2096 83.1579 26.2096C81.8704 26.2096 80.7723 26.6766 79.8635 27.6107C78.9799 28.5195 78.5381 29.7817 78.5381 31.3973C78.5381 33.013 78.9799 34.3004 79.8635 35.2597C80.7723 36.1938 81.8704 36.6608 83.1579 36.6608C84.4453 36.6608 85.5308 36.1938 86.4144 35.2597C87.3232 34.3257 87.7776 33.0508 87.7776 31.4352ZM107.533 42.3029C105.69 42.3029 104.049 41.9874 102.61 41.3563C101.171 40.7252 100.035 39.8668 99.2024 38.7813C98.3693 37.6706 97.9023 36.4336 97.8013 35.0704H104.201C104.277 35.8025 104.617 36.3957 105.223 36.8501C105.829 37.3045 106.574 37.5317 107.457 37.5317C108.265 37.5317 108.884 37.3803 109.313 37.0773C109.767 36.7492 109.994 36.3326 109.994 35.8277C109.994 35.2219 109.679 34.7801 109.048 34.5024C108.417 34.1995 107.394 33.8713 105.981 33.5179C104.466 33.1644 103.204 32.7984 102.194 32.4197C101.184 32.0158 100.313 31.3973 99.581 30.5643C98.849 29.706 98.4829 28.5573 98.4829 27.1184C98.4829 25.9067 98.8111 24.8085 99.4674 23.824C100.149 22.8142 101.134 22.019 102.421 21.4384C103.734 20.8578 105.286 20.5675 107.079 20.5675C109.729 20.5675 111.812 21.2238 113.327 22.5365C114.867 23.8492 115.75 25.5911 115.977 27.7621H109.994C109.893 27.03 109.565 26.4494 109.01 26.0203C108.48 25.5911 107.773 25.3765 106.889 25.3765C106.132 25.3765 105.551 25.528 105.147 25.8309C104.744 26.1086 104.542 26.4999 104.542 27.0048C104.542 27.6107 104.857 28.0651 105.488 28.368C106.145 28.6709 107.154 28.9739 108.518 29.2768C110.083 29.6807 111.358 30.0846 112.342 30.4885C113.327 30.8672 114.185 31.4983 114.917 32.3819C115.674 33.2402 116.066 34.4014 116.091 35.8656C116.091 37.1026 115.737 38.2133 115.031 39.1979C114.349 40.1572 113.352 40.9145 112.039 41.4699C110.752 42.0252 109.25 42.3029 107.533 42.3029ZM132.965 42L126.528 33.1392V42H120.052V13.9787H126.528V29.4661L132.927 20.8704H140.917L132.132 31.4731L140.993 42H132.965Z" fill="white"/>
<rect y="22.5181" width="33.0627" height="7.62985" rx="3.81493" fill="white"/>
<rect x="9.85522" y="35.5524" width="23.2075" height="7.62985" rx="3.81493" fill="white"/>
<circle cx="19.7104" cy="13.9345" r="3.81493" fill="white"/>
<circle cx="38.7851" cy="39.3673" r="3.81493" fill="white"/>
</svg>
