<svg width="346" height="139" viewBox="0 0 346 139" fill="none" xmlns="http://www.w3.org/2000/svg">
<path d="M171.226 36.9652V49.6572H153.994V102H138.153V49.6572H120.921V36.9652H171.226ZM176.027 76.0602C176.027 70.7487 177.015 66.0857 178.991 62.0712C181.029 58.0567 183.778 54.9687 187.236 52.807C190.695 50.6454 194.555 49.5646 198.817 49.5646C202.46 49.5646 205.641 50.3057 208.359 51.788C211.138 53.2702 213.269 55.2157 214.751 57.6244V50.3057H230.593V102H214.751V94.6813C213.207 97.09 211.045 99.0355 208.266 100.518C205.549 102 202.368 102.741 198.724 102.741C194.524 102.741 190.695 101.66 187.236 99.4987C183.778 97.2753 181.029 94.1563 178.991 90.1418C177.015 86.0656 176.027 81.3717 176.027 76.0602ZM214.751 76.1528C214.751 72.2001 213.639 69.0812 211.416 66.796C209.254 64.5108 206.598 63.3682 203.449 63.3682C200.299 63.3682 197.612 64.5108 195.389 66.796C193.227 69.0194 192.146 72.1075 192.146 76.0602C192.146 80.0129 193.227 83.1628 195.389 85.5097C197.612 87.7949 200.299 88.9375 203.449 88.9375C206.598 88.9375 209.254 87.7949 211.416 85.5097C213.639 83.2245 214.751 80.1056 214.751 76.1528ZM263.083 102.741C258.575 102.741 254.56 101.969 251.04 100.425C247.52 98.881 244.74 96.7812 242.702 94.1254C240.664 91.4079 239.521 88.3816 239.274 85.0465H254.931C255.116 86.8376 255.95 88.289 257.432 89.4007C258.915 90.5124 260.736 91.0682 262.898 91.0682C264.874 91.0682 266.388 90.6977 267.438 89.9565C268.549 89.1536 269.105 88.1346 269.105 86.8993C269.105 85.4171 268.333 84.3362 266.789 83.6569C265.245 82.9157 262.744 82.1128 259.285 81.2482C255.579 80.3835 252.491 79.488 250.021 78.5615C247.55 77.5734 245.42 76.0602 243.629 74.0221C241.837 71.9222 240.942 69.112 240.942 65.5916C240.942 62.6271 241.745 59.9405 243.351 57.5318C245.018 55.0613 247.427 53.1158 250.577 51.6953C253.788 50.2748 257.587 49.5646 261.972 49.5646C268.457 49.5646 273.552 51.1703 277.258 54.3819C281.025 57.5935 283.187 61.8551 283.743 67.1666H269.105C268.858 65.3755 268.055 63.955 266.696 62.905C265.399 61.8551 263.67 61.3301 261.508 61.3301C259.656 61.3301 258.235 61.7007 257.247 62.4418C256.259 63.1212 255.765 64.0785 255.765 65.3137C255.765 66.796 256.537 67.9077 258.081 68.6488C259.687 69.39 262.157 70.1311 265.492 70.8722C269.321 71.8604 272.44 72.8486 274.849 73.8368C277.258 74.7632 279.358 76.3072 281.149 78.4689C283.001 80.5688 283.959 83.4098 284.021 86.992C284.021 90.0183 283.156 92.7358 281.427 95.1445C279.759 97.4914 277.319 99.3443 274.108 100.703C270.958 102.062 267.283 102.741 263.083 102.741ZM325.303 102L309.554 80.3217V102H293.712V33.4448H309.554V71.3355L325.211 50.3057H344.758L323.265 76.2455L344.944 102H325.303Z" fill="black"/>
<rect y="55.0918" width="80.889" height="18.6667" rx="9.33335" fill="black"/>
<rect x="24.1111" y="86.9805" width="56.7779" height="18.6667" rx="9.33335" fill="black"/>
<circle cx="48.2223" cy="34.0912" r="9.33335" fill="black"/>
<circle cx="94.889" cy="96.3138" r="9.33335" fill="black"/>
</svg>
